G04 ================== begin FILE IDENTIFICATION RECORD ==================*
G04 Layout Name:  C:/Users/Bogdan/Desktop/ETTI/An 3 - Sem 1/P1/allegro/P1 BUN.brd*
G04 Film Name:    FAB*
G04 File Format:  Gerber RS274X*
G04 File Origin:  Cadence Allegro 17.2-S025*
G04 Origin Date:  Sat Dec 09 22:03:42 2023*
G04 *
G04 Layer:  MANUFACTURING/NCDRILL_LEGEND*
G04 Layer:  MANUFACTURING/NCDRILL_FIGURE*
G04 Layer:  MANUFACTURING/XSECTION_CHART*
G04 Layer:  MANUFACTURING/NCLEGEND-1-2*
G04 Layer:  DRAWING FORMAT/OUTLINE*
G04 Layer:  BOARD GEOMETRY/DESIGN_OUTLINE*
G04 *
G04 Offset:    (0.00 0.00)*
G04 Mirror:    No*
G04 Mode:      Positive*
G04 Rotation:  0*
G04 FullContactRelief:  No*
G04 UndefLineWidth:     0.10*
G04 ================== end FILE IDENTIFICATION RECORD ====================*
%FSLAX25Y25*MOIN*%
%IR0*IPPOS*OFA0.00000B0.00000*MIA0B0*SFA1.00000B1.00000*%
%AMMACRO10*
1,1,.0001,.025,0.0*
20,1,.0001,.025,0.0,.02462,-.004341,0.0*
1,1,.0001,.02462,-.004341*
20,1,.0001,.02462,-.004341,.023492,-.008551,0.0*
1,1,.0001,.023492,-.008551*
20,1,.0001,.023492,-.008551,.021651,-.0125,0.0*
1,1,.0001,.021651,-.0125*
20,1,.0001,.021651,-.0125,.019151,-.01607,0.0*
1,1,.0001,.019151,-.01607*
20,1,.0001,.019151,-.01607,.01607,-.019151,0.0*
1,1,.0001,.01607,-.019151*
20,1,.0001,.01607,-.019151,.0125,-.021651,0.0*
1,1,.0001,.0125,-.021651*
20,1,.0001,.0125,-.021651,.008551,-.023492,0.0*
1,1,.0001,.008551,-.023492*
20,1,.0001,.008551,-.023492,.004341,-.02462,0.0*
1,1,.0001,.004341,-.02462*
20,1,.0001,.004341,-.02462,0.0,-.025,0.0*
1,1,.0001,0.0,-.025*
20,1,.0001,0.0,-.025,-.004341,-.02462,0.0*
1,1,.0001,-.004341,-.02462*
20,1,.0001,-.004341,-.02462,-.008551,-.023492,0.0*
1,1,.0001,-.008551,-.023492*
20,1,.0001,-.008551,-.023492,-.0125,-.021651,0.0*
1,1,.0001,-.0125,-.021651*
20,1,.0001,-.0125,-.021651,-.01607,-.019151,0.0*
1,1,.0001,-.01607,-.019151*
20,1,.0001,-.01607,-.019151,-.019151,-.01607,0.0*
1,1,.0001,-.019151,-.01607*
20,1,.0001,-.019151,-.01607,-.021651,-.0125,0.0*
1,1,.0001,-.021651,-.0125*
20,1,.0001,-.021651,-.0125,-.023492,-.008551,0.0*
1,1,.0001,-.023492,-.008551*
20,1,.0001,-.023492,-.008551,-.02462,-.004341,0.0*
1,1,.0001,-.02462,-.004341*
20,1,.0001,-.02462,-.004341,-.025,0.0,0.0*
1,1,.0001,-.025,0.0*
20,1,.0001,-.025,0.0,-.02462,.004341,0.0*
1,1,.0001,-.02462,.004341*
20,1,.0001,-.02462,.004341,-.023492,.008551,0.0*
1,1,.0001,-.023492,.008551*
20,1,.0001,-.023492,.008551,-.021651,.0125,0.0*
1,1,.0001,-.021651,.0125*
20,1,.0001,-.021651,.0125,-.019151,.01607,0.0*
1,1,.0001,-.019151,.01607*
20,1,.0001,-.019151,.01607,-.01607,.019151,0.0*
1,1,.0001,-.01607,.019151*
20,1,.0001,-.01607,.019151,-.0125,.021651,0.0*
1,1,.0001,-.0125,.021651*
20,1,.0001,-.0125,.021651,-.008551,.023492,0.0*
1,1,.0001,-.008551,.023492*
20,1,.0001,-.008551,.023492,-.004341,.02462,0.0*
1,1,.0001,-.004341,.02462*
20,1,.0001,-.004341,.02462,0.0,.025,0.0*
1,1,.0001,0.0,.025*
20,1,.0001,0.0,.025,.004341,.02462,0.0*
1,1,.0001,.004341,.02462*
20,1,.0001,.004341,.02462,.008551,.023492,0.0*
1,1,.0001,.008551,.023492*
20,1,.0001,.008551,.023492,.0125,.021651,0.0*
1,1,.0001,.0125,.021651*
20,1,.0001,.0125,.021651,.01607,.019151,0.0*
1,1,.0001,.01607,.019151*
20,1,.0001,.01607,.019151,.019151,.01607,0.0*
1,1,.0001,.019151,.01607*
20,1,.0001,.019151,.01607,.021651,.0125,0.0*
1,1,.0001,.021651,.0125*
20,1,.0001,.021651,.0125,.023492,.008551,0.0*
1,1,.0001,.023492,.008551*
20,1,.0001,.023492,.008551,.02462,.004341,0.0*
1,1,.0001,.02462,.004341*
20,1,.0001,.02462,.004341,.025,0.0,0.0*
1,1,.0001,.025,0.0*
1,1,.0001,.0125,0.0*
20,1,.0001,.0125,0.0,-.0125,0.0,0.0*
1,1,.0001,-.0125,0.0*
1,1,.0001,0.0,.0125*
20,1,.0001,0.0,.0125,0.0,-.0125,0.0*
1,1,.0001,0.0,-.0125*
%
%ADD10MACRO10*%
%ADD11C,.0001*%
%ADD12C,.006*%
G75*
%LPD*%
G75*
G36*
G01X-130000Y143497D02*
Y139158D01*
X-127500D01*
Y-50563D01*
X-130000D01*
Y-54902D01*
X-115000D01*
Y-50563D01*
X-117500D01*
Y139158D01*
X-115000D01*
Y143497D01*
X-130000D01*
G37*
G36*
G01X-150000Y-54901D02*
Y-50562D01*
X-90000D01*
Y-54901D01*
X-150000D01*
G37*
G36*
G01Y139158D02*
Y143497D01*
X-90000D01*
Y139158D01*
X-150000D01*
G37*
G54D10*
X44950Y-107500D03*
X81500Y54500D03*
X58000Y85500D03*
X65000Y72500D03*
X58000Y139000D03*
X89900Y54500D03*
X107500D03*
X99500Y88000D03*
X100100Y135600D03*
X136360Y35140D03*
Y72000D03*
X118500Y108900D03*
X128000Y103500D03*
X136500Y133000D03*
G54D11*
G01X-150000Y-50562D02*
Y139158D01*
X-90000D01*
Y-50562D01*
X-150000D01*
G01X11005Y-88750D02*
Y-76250D01*
X16895D01*
G01X14725Y-82292D02*
X11005D01*
G01X24490Y-76250D02*
X28210D01*
G01X26350D02*
Y-88750D01*
G01X24490D02*
X28210D01*
G01X39680Y-82500D02*
X42780D01*
Y-86250D01*
X41850Y-87500D01*
X40765Y-88333D01*
X39215Y-88750D01*
X37665Y-88333D01*
X36580Y-87500D01*
X35650Y-86250D01*
X35030Y-84792D01*
X34720Y-83125D01*
Y-81667D01*
X35030Y-80417D01*
X35650Y-78958D01*
X36580Y-77708D01*
X37510Y-76875D01*
X38750Y-76250D01*
X39835D01*
X41075Y-76667D01*
X42005Y-77500D01*
G01X47740Y-76250D02*
Y-85208D01*
X48360Y-87084D01*
X49600Y-88333D01*
X51150Y-88750D01*
X52700Y-88333D01*
X53940Y-87084D01*
X54560Y-85208D01*
Y-76250D01*
G01X60450Y-88750D02*
Y-76250D01*
X64325D01*
X65565Y-76875D01*
X66340Y-77708D01*
X66650Y-79375D01*
X66340Y-81042D01*
X65410Y-82083D01*
X64325Y-82708D01*
X60450D01*
G01X64325D02*
X66650Y-88750D01*
G01X79050D02*
X72850D01*
Y-76250D01*
X79050D01*
G01X76570Y-82292D02*
X72850D01*
G01X0Y-120000D02*
Y-20000D01*
X496000D01*
Y-120000D01*
X0D01*
G01Y-95000D02*
X496000D01*
G01X0Y-70000D02*
X496000D01*
G01X0Y-45000D02*
X496000D01*
G01X0Y0D02*
Y160000D01*
X160000D01*
Y0D01*
X0D01*
G01X89900Y-70000D02*
Y-120000D01*
G01X89590Y-38750D02*
Y-26250D01*
X92690D01*
X93930Y-26875D01*
X94860Y-27708D01*
X95635Y-28958D01*
X96255Y-30417D01*
X96410Y-32500D01*
X96255Y-34583D01*
X95635Y-36042D01*
X94860Y-37292D01*
X93930Y-38125D01*
X92690Y-38750D01*
X89590D01*
G01X102300D02*
Y-26250D01*
X106175D01*
X107415Y-26875D01*
X108190Y-27708D01*
X108500Y-29375D01*
X108190Y-31042D01*
X107260Y-32083D01*
X106175Y-32708D01*
X102300D01*
G01X106175D02*
X108500Y-38750D01*
G01X115940Y-26250D02*
X119660D01*
G01X117800D02*
Y-38750D01*
G01X115940D02*
X119660D01*
G01X127100Y-26250D02*
Y-38750D01*
X133300D01*
G01X139500Y-26250D02*
Y-38750D01*
X145700D01*
G01X170810Y-27292D02*
X169880Y-26667D01*
X168795Y-26250D01*
X167555D01*
X166160Y-26875D01*
X165075Y-27917D01*
X164300Y-29167D01*
X163680Y-31250D01*
X163525Y-33125D01*
X163835Y-35000D01*
X164300Y-36250D01*
X165230Y-37500D01*
X166315Y-38333D01*
X167400Y-38750D01*
X168485D01*
X169570Y-38333D01*
X170500Y-37709D01*
X171275Y-36875D01*
G01X176545Y-38750D02*
Y-26250D01*
G01X183055D02*
Y-38750D01*
G01Y-32500D02*
X176545D01*
G01X188325Y-38750D02*
X192200Y-26250D01*
X196075Y-38750D01*
G01X194680Y-34375D02*
X189720D01*
G01X201500Y-38750D02*
Y-26250D01*
X205375D01*
X206615Y-26875D01*
X207390Y-27708D01*
X207700Y-29375D01*
X207390Y-31042D01*
X206460Y-32083D01*
X205375Y-32708D01*
X201500D01*
G01X205375D02*
X207700Y-38750D01*
G01X217000Y-26250D02*
Y-38750D01*
G01X213435Y-26250D02*
X220565D01*
G01X229400Y-39167D02*
X229090Y-38958D01*
Y-38542D01*
X229400Y-38333D01*
X229710Y-38542D01*
Y-38958D01*
X229400Y-39167D01*
G01Y-33542D02*
X229090Y-33333D01*
Y-32917D01*
X229400Y-32708D01*
X229710Y-32917D01*
Y-33333D01*
X229400Y-33542D01*
G01X254200Y-26250D02*
Y-38750D01*
G01X250635Y-26250D02*
X257765D01*
G01X266600Y-38750D02*
X265360Y-38542D01*
X264275Y-37709D01*
X263345Y-36458D01*
X262725Y-35000D01*
X262415Y-33333D01*
Y-31667D01*
X262725Y-30000D01*
X263345Y-28542D01*
X264275Y-27292D01*
X265360Y-26458D01*
X266600Y-26250D01*
X267840Y-26458D01*
X268925Y-27292D01*
X269855Y-28542D01*
X270475Y-30000D01*
X270785Y-31667D01*
Y-33333D01*
X270475Y-35000D01*
X269855Y-36458D01*
X268925Y-37709D01*
X267840Y-38542D01*
X266600Y-38750D01*
G01X275900D02*
Y-26250D01*
X279620D01*
X280860Y-26875D01*
X281790Y-28333D01*
X282100Y-30000D01*
X281790Y-31667D01*
X281015Y-32917D01*
X279620Y-33542D01*
X275900D01*
G01X303800Y-26250D02*
Y-38750D01*
G01X301630Y-30417D02*
X305970D01*
G01X316200Y-38750D02*
X315270Y-38542D01*
X314340Y-37709D01*
X313720Y-36250D01*
X313410Y-34583D01*
X313720Y-32917D01*
X314340Y-31458D01*
X315270Y-30625D01*
X316200Y-30417D01*
X317130Y-30625D01*
X318060Y-31458D01*
X318680Y-32917D01*
X318835Y-34583D01*
X318680Y-36250D01*
X318060Y-37709D01*
X317130Y-38542D01*
X316200Y-38750D01*
G01X342240Y-32083D02*
X342860Y-31458D01*
X343325Y-30417D01*
X343635Y-28958D01*
X343325Y-27708D01*
X342705Y-26875D01*
X341620Y-26250D01*
X337435D01*
Y-38750D01*
X342550D01*
X343635Y-37917D01*
X344255Y-36667D01*
X344565Y-35208D01*
X344255Y-33750D01*
X343325Y-32500D01*
X342240Y-32083D01*
X337435D01*
G01X353400Y-38750D02*
X352160Y-38542D01*
X351075Y-37709D01*
X350145Y-36458D01*
X349525Y-35000D01*
X349215Y-33333D01*
Y-31667D01*
X349525Y-30000D01*
X350145Y-28542D01*
X351075Y-27292D01*
X352160Y-26458D01*
X353400Y-26250D01*
X354640Y-26458D01*
X355725Y-27292D01*
X356655Y-28542D01*
X357275Y-30000D01*
X357585Y-31667D01*
Y-33333D01*
X357275Y-35000D01*
X356655Y-36458D01*
X355725Y-37709D01*
X354640Y-38542D01*
X353400Y-38750D01*
G01X365800Y-26250D02*
Y-38750D01*
G01X362235Y-26250D02*
X369365D01*
G01X378200D02*
Y-38750D01*
G01X374635Y-26250D02*
X381765D01*
G01X390600Y-38750D02*
X389360Y-38542D01*
X388275Y-37709D01*
X387345Y-36458D01*
X386725Y-35000D01*
X386415Y-33333D01*
Y-31667D01*
X386725Y-30000D01*
X387345Y-28542D01*
X388275Y-27292D01*
X389360Y-26458D01*
X390600Y-26250D01*
X391840Y-26458D01*
X392925Y-27292D01*
X393855Y-28542D01*
X394475Y-30000D01*
X394785Y-31667D01*
Y-33333D01*
X394475Y-35000D01*
X393855Y-36458D01*
X392925Y-37709D01*
X391840Y-38542D01*
X390600Y-38750D01*
G01X398970D02*
Y-26250D01*
X403000Y-36667D01*
X407030Y-26250D01*
Y-38750D01*
G01X113305Y-88750D02*
Y-76250D01*
X119195D01*
G01X117025Y-82292D02*
X113305D01*
G01X126790Y-76250D02*
X130510D01*
G01X128650D02*
Y-88750D01*
G01X126790D02*
X130510D01*
G01X137485D02*
Y-76250D01*
X144615Y-88750D01*
Y-76250D01*
G01X151590D02*
X155310D01*
G01X153450D02*
Y-88750D01*
G01X151590D02*
X155310D01*
G01X162595Y-87084D02*
X163835Y-88125D01*
X165230Y-88750D01*
X166470D01*
X167710Y-88125D01*
X168640Y-87084D01*
X169105Y-85625D01*
X168795Y-84167D01*
X168020Y-82917D01*
X166625Y-82083D01*
X164765Y-81667D01*
X163680Y-80833D01*
X163215Y-79375D01*
X163525Y-77917D01*
X164300Y-76875D01*
X165385Y-76250D01*
X166470D01*
X167555Y-76667D01*
X168485Y-77708D01*
G01X174995Y-88750D02*
Y-76250D01*
G01X181505D02*
Y-88750D01*
G01Y-82500D02*
X174995D01*
G01X193750Y-88750D02*
X187550D01*
Y-76250D01*
X193750D01*
G01X191270Y-82292D02*
X187550D01*
G01X199640Y-88750D02*
Y-76250D01*
X202740D01*
X203980Y-76875D01*
X204910Y-77708D01*
X205685Y-78958D01*
X206305Y-80417D01*
X206460Y-82500D01*
X206305Y-84583D01*
X205685Y-86042D01*
X204910Y-87292D01*
X203980Y-88125D01*
X202740Y-88750D01*
X199640D01*
G01X210800Y-92917D02*
X220100D01*
G01X224595Y-87084D02*
X225835Y-88125D01*
X227230Y-88750D01*
X228470D01*
X229710Y-88125D01*
X230640Y-87084D01*
X231105Y-85625D01*
X230795Y-84167D01*
X230020Y-82917D01*
X228625Y-82083D01*
X226765Y-81667D01*
X225680Y-80833D01*
X225215Y-79375D01*
X225525Y-77917D01*
X226300Y-76875D01*
X227385Y-76250D01*
X228470D01*
X229555Y-76667D01*
X230485Y-77708D01*
G01X238390Y-76250D02*
X242110D01*
G01X240250D02*
Y-88750D01*
G01X238390D02*
X242110D01*
G01X249705Y-76250D02*
X255595D01*
X249705Y-88750D01*
X255595D01*
G01X268150D02*
X261950D01*
Y-76250D01*
X268150D01*
G01X265670Y-82292D02*
X261950D01*
G01X120125Y-63750D02*
X124000Y-51250D01*
X127875Y-63750D01*
G01X126480Y-59375D02*
X121520D01*
G01X133300Y-51250D02*
Y-63750D01*
X139500D01*
G01X145700Y-51250D02*
Y-63750D01*
X151900D01*
G01X170190Y-51250D02*
Y-60208D01*
X170810Y-62084D01*
X172050Y-63333D01*
X173600Y-63750D01*
X175150Y-63333D01*
X176390Y-62084D01*
X177010Y-60208D01*
Y-51250D01*
G01X182435Y-63750D02*
Y-51250D01*
X189565Y-63750D01*
Y-51250D01*
G01X196540D02*
X200260D01*
G01X198400D02*
Y-63750D01*
G01X196540D02*
X200260D01*
G01X210800Y-51250D02*
Y-63750D01*
G01X207235Y-51250D02*
X214365D01*
G01X219945Y-62084D02*
X221185Y-63125D01*
X222580Y-63750D01*
X223820D01*
X225060Y-63125D01*
X225990Y-62084D01*
X226455Y-60625D01*
X226145Y-59167D01*
X225370Y-57917D01*
X223975Y-57083D01*
X222115Y-56667D01*
X221030Y-55833D01*
X220565Y-54375D01*
X220875Y-52917D01*
X221650Y-51875D01*
X222735Y-51250D01*
X223820D01*
X224905Y-51667D01*
X225835Y-52708D01*
G01X244125Y-63750D02*
X248000Y-51250D01*
X251875Y-63750D01*
G01X250480Y-59375D02*
X245520D01*
G01X257300Y-63750D02*
Y-51250D01*
X261175D01*
X262415Y-51875D01*
X263190Y-52708D01*
X263500Y-54375D01*
X263190Y-56042D01*
X262260Y-57083D01*
X261175Y-57708D01*
X257300D01*
G01X261175D02*
X263500Y-63750D01*
G01X275900D02*
X269700D01*
Y-51250D01*
X275900D01*
G01X273420Y-57292D02*
X269700D01*
G01X295740Y-51250D02*
X299460D01*
G01X297600D02*
Y-63750D01*
G01X295740D02*
X299460D01*
G01X306435D02*
Y-51250D01*
X313565Y-63750D01*
Y-51250D01*
G01X330770Y-63750D02*
Y-51250D01*
X334800Y-61667D01*
X338830Y-51250D01*
Y-63750D01*
G01X345340Y-51250D02*
X349060D01*
G01X347200D02*
Y-63750D01*
G01X345340D02*
X349060D01*
G01X356500Y-51250D02*
Y-63750D01*
X362700D01*
G01X368745Y-62084D02*
X369985Y-63125D01*
X371380Y-63750D01*
X372620D01*
X373860Y-63125D01*
X374790Y-62084D01*
X375255Y-60625D01*
X374945Y-59167D01*
X374170Y-57917D01*
X372775Y-57083D01*
X370915Y-56667D01*
X369830Y-55833D01*
X369365Y-54375D01*
X369675Y-52917D01*
X370450Y-51875D01*
X371535Y-51250D01*
X372620D01*
X373705Y-51667D01*
X374635Y-52708D01*
G01X172050Y-113750D02*
Y-101250D01*
X170190Y-103750D01*
G01Y-113750D02*
X173910D01*
G01X181505Y-108542D02*
X182590Y-107083D01*
X183520Y-106250D01*
X184760Y-105833D01*
X185845Y-106250D01*
X186620Y-107083D01*
X187240Y-108333D01*
X187395Y-109792D01*
X187240Y-111042D01*
X186620Y-112292D01*
X185690Y-113333D01*
X184605Y-113750D01*
X183365Y-113333D01*
X182280Y-112084D01*
X181660Y-110208D01*
X181505Y-108125D01*
X181815Y-105417D01*
X182280Y-103958D01*
X183055Y-102500D01*
X184140Y-101458D01*
X185225Y-101250D01*
X186310Y-101667D01*
X187085Y-102708D01*
G01X196850Y-114167D02*
X196540Y-113958D01*
Y-113542D01*
X196850Y-113333D01*
X197160Y-113542D01*
Y-113958D01*
X196850Y-114167D01*
G01X209250Y-101250D02*
X208010Y-101667D01*
X207080Y-102708D01*
X206460Y-103958D01*
X205995Y-105625D01*
X205840Y-107500D01*
X205995Y-109375D01*
X206460Y-111042D01*
X207080Y-112292D01*
X208010Y-113333D01*
X209250Y-113750D01*
X210490Y-113333D01*
X211420Y-112292D01*
X212040Y-111042D01*
X212505Y-109375D01*
X212660Y-107500D01*
X212505Y-105625D01*
X212040Y-103958D01*
X211420Y-102708D01*
X210490Y-101667D01*
X209250Y-101250D01*
G01X320850Y-88750D02*
Y-76250D01*
X324570D01*
X325810Y-76875D01*
X326740Y-78333D01*
X327050Y-80000D01*
X326740Y-81667D01*
X325965Y-82917D01*
X324570Y-83542D01*
X320850D01*
G01X333250Y-76250D02*
Y-88750D01*
X339450D01*
G01X344875D02*
X348750Y-76250D01*
X352625Y-88750D01*
G01X351230Y-84375D02*
X346270D01*
G01X361150Y-76250D02*
Y-88750D01*
G01X357585Y-76250D02*
X364715D01*
G01X376650Y-88750D02*
X370450D01*
Y-76250D01*
X376650D01*
G01X374170Y-82292D02*
X370450D01*
G01X382540Y-88750D02*
Y-76250D01*
X385640D01*
X386880Y-76875D01*
X387810Y-77708D01*
X388585Y-78958D01*
X389205Y-80417D01*
X389360Y-82500D01*
X389205Y-84583D01*
X388585Y-86042D01*
X387810Y-87292D01*
X386880Y-88125D01*
X385640Y-88750D01*
X382540D01*
G01X320850Y-113750D02*
Y-101250D01*
X324570D01*
X325810Y-101875D01*
X326740Y-103333D01*
X327050Y-105000D01*
X326740Y-106667D01*
X325965Y-107917D01*
X324570Y-108542D01*
X320850D01*
G01X333250Y-101250D02*
Y-113750D01*
X339450D01*
G01X344875D02*
X348750Y-101250D01*
X352625Y-113750D01*
G01X351230Y-109375D02*
X346270D01*
G01X361150Y-101250D02*
Y-113750D01*
G01X357585Y-101250D02*
X364715D01*
G01X376650Y-113750D02*
X370450D01*
Y-101250D01*
X376650D01*
G01X374170Y-107292D02*
X370450D01*
G01X382540Y-113750D02*
Y-101250D01*
X385640D01*
X386880Y-101875D01*
X387810Y-102708D01*
X388585Y-103958D01*
X389205Y-105417D01*
X389360Y-107500D01*
X389205Y-109583D01*
X388585Y-111042D01*
X387810Y-112292D01*
X386880Y-113125D01*
X385640Y-113750D01*
X382540D01*
G01X291400Y-70000D02*
Y-120000D01*
G01X418500Y-70000D02*
Y-120000D01*
G01X444850Y-88750D02*
X443610Y-88542D01*
X442525Y-87709D01*
X441595Y-86458D01*
X440975Y-85000D01*
X440665Y-83333D01*
Y-81667D01*
X440975Y-80000D01*
X441595Y-78542D01*
X442525Y-77292D01*
X443610Y-76458D01*
X444850Y-76250D01*
X446090Y-76458D01*
X447175Y-77292D01*
X448105Y-78542D01*
X448725Y-80000D01*
X449035Y-81667D01*
Y-83333D01*
X448725Y-85000D01*
X448105Y-86458D01*
X447175Y-87709D01*
X446090Y-88542D01*
X444850Y-88750D01*
G01X446090Y-85417D02*
X447950Y-88750D01*
G01X457250Y-76250D02*
Y-88750D01*
G01X453685Y-76250D02*
X460815D01*
G01X469650Y-88750D02*
Y-83125D01*
X466550Y-76250D01*
G01X472750D02*
X469650Y-83125D01*
G01X451050Y-113750D02*
Y-101250D01*
X449190Y-103750D01*
G01Y-113750D02*
X452910D01*
G01X460040Y-111250D02*
X460970Y-112709D01*
X462210Y-113542D01*
X463605Y-113750D01*
X464845Y-113542D01*
X466085Y-112500D01*
X466860Y-111250D01*
X467015Y-110000D01*
X466705Y-108542D01*
X465620Y-107500D01*
X464535Y-107083D01*
X463140D01*
G01X464535D02*
X465465Y-106458D01*
X466240Y-105417D01*
X466550Y-104167D01*
X466240Y-102917D01*
X465465Y-101875D01*
X464070Y-101250D01*
X462675Y-101458D01*
X461280Y-102292D01*
G54D12*
G01X-148087Y-64367D02*
Y-61867D01*
X-147553D01*
X-147340Y-61992D01*
X-147180Y-62159D01*
X-147047Y-62409D01*
X-146940Y-62700D01*
X-146913Y-63117D01*
X-146940Y-63534D01*
X-147047Y-63825D01*
X-147180Y-64075D01*
X-147340Y-64242D01*
X-147553Y-64367D01*
X-148087D01*
G01X-144767D02*
X-145833D01*
Y-61867D01*
X-144767D01*
G01X-145193Y-63075D02*
X-145833D01*
G01X-143660Y-64034D02*
X-143447Y-64242D01*
X-143207Y-64367D01*
X-142993D01*
X-142780Y-64242D01*
X-142620Y-64034D01*
X-142540Y-63742D01*
X-142593Y-63450D01*
X-142727Y-63200D01*
X-142967Y-63034D01*
X-143287Y-62950D01*
X-143473Y-62784D01*
X-143553Y-62492D01*
X-143500Y-62200D01*
X-143367Y-61992D01*
X-143180Y-61867D01*
X-142993D01*
X-142807Y-61950D01*
X-142647Y-62159D01*
G01X-141220Y-61867D02*
X-140580D01*
G01X-140900D02*
Y-64367D01*
G01X-141220D02*
X-140580D01*
G01X-138540Y-63117D02*
X-138007D01*
Y-63867D01*
X-138167Y-64117D01*
X-138353Y-64284D01*
X-138620Y-64367D01*
X-138887Y-64284D01*
X-139073Y-64117D01*
X-139233Y-63867D01*
X-139340Y-63575D01*
X-139393Y-63242D01*
Y-62950D01*
X-139340Y-62700D01*
X-139233Y-62409D01*
X-139073Y-62159D01*
X-138913Y-61992D01*
X-138700Y-61867D01*
X-138513D01*
X-138300Y-61950D01*
X-138140Y-62117D01*
G01X-137113Y-64367D02*
Y-61867D01*
X-135887Y-64367D01*
Y-61867D01*
G01X-131513Y-62075D02*
X-131673Y-61950D01*
X-131860Y-61867D01*
X-132073D01*
X-132313Y-61992D01*
X-132500Y-62200D01*
X-132633Y-62450D01*
X-132740Y-62867D01*
X-132767Y-63242D01*
X-132713Y-63617D01*
X-132633Y-63867D01*
X-132473Y-64117D01*
X-132287Y-64284D01*
X-132100Y-64367D01*
X-131913D01*
X-131727Y-64284D01*
X-131567Y-64159D01*
X-131433Y-63992D01*
G01X-130433Y-64367D02*
Y-61867D01*
X-129767D01*
X-129553Y-61992D01*
X-129420Y-62159D01*
X-129367Y-62492D01*
X-129420Y-62825D01*
X-129580Y-63034D01*
X-129767Y-63159D01*
X-130433D01*
G01X-129767D02*
X-129367Y-64367D01*
G01X-127700D02*
X-127913Y-64325D01*
X-128100Y-64159D01*
X-128260Y-63909D01*
X-128367Y-63617D01*
X-128420Y-63284D01*
Y-62950D01*
X-128367Y-62617D01*
X-128260Y-62325D01*
X-128100Y-62075D01*
X-127913Y-61909D01*
X-127700Y-61867D01*
X-127487Y-61909D01*
X-127300Y-62075D01*
X-127140Y-62325D01*
X-127033Y-62617D01*
X-126980Y-62950D01*
Y-63284D01*
X-127033Y-63617D01*
X-127140Y-63909D01*
X-127300Y-64159D01*
X-127487Y-64325D01*
X-127700Y-64367D01*
G01X-126060Y-64034D02*
X-125847Y-64242D01*
X-125607Y-64367D01*
X-125393D01*
X-125180Y-64242D01*
X-125020Y-64034D01*
X-124940Y-63742D01*
X-124993Y-63450D01*
X-125127Y-63200D01*
X-125367Y-63034D01*
X-125687Y-62950D01*
X-125873Y-62784D01*
X-125953Y-62492D01*
X-125900Y-62200D01*
X-125767Y-61992D01*
X-125580Y-61867D01*
X-125393D01*
X-125207Y-61950D01*
X-125047Y-62159D01*
G01X-123860Y-64034D02*
X-123647Y-64242D01*
X-123407Y-64367D01*
X-123193D01*
X-122980Y-64242D01*
X-122820Y-64034D01*
X-122740Y-63742D01*
X-122793Y-63450D01*
X-122927Y-63200D01*
X-123167Y-63034D01*
X-123487Y-62950D01*
X-123673Y-62784D01*
X-123753Y-62492D01*
X-123700Y-62200D01*
X-123567Y-61992D01*
X-123380Y-61867D01*
X-123193D01*
X-123007Y-61950D01*
X-122847Y-62159D01*
G01X-119460Y-64034D02*
X-119247Y-64242D01*
X-119007Y-64367D01*
X-118793D01*
X-118580Y-64242D01*
X-118420Y-64034D01*
X-118340Y-63742D01*
X-118393Y-63450D01*
X-118527Y-63200D01*
X-118767Y-63034D01*
X-119087Y-62950D01*
X-119273Y-62784D01*
X-119353Y-62492D01*
X-119300Y-62200D01*
X-119167Y-61992D01*
X-118980Y-61867D01*
X-118793D01*
X-118607Y-61950D01*
X-118447Y-62159D01*
G01X-116167Y-64367D02*
X-117233D01*
Y-61867D01*
X-116167D01*
G01X-116593Y-63075D02*
X-117233D01*
G01X-113913Y-62075D02*
X-114073Y-61950D01*
X-114260Y-61867D01*
X-114473D01*
X-114713Y-61992D01*
X-114900Y-62200D01*
X-115033Y-62450D01*
X-115140Y-62867D01*
X-115167Y-63242D01*
X-115113Y-63617D01*
X-115033Y-63867D01*
X-114873Y-64117D01*
X-114687Y-64284D01*
X-114500Y-64367D01*
X-114313D01*
X-114127Y-64284D01*
X-113967Y-64159D01*
X-113833Y-63992D01*
G01X-112300Y-61867D02*
Y-64367D01*
G01X-112913Y-61867D02*
X-111687D01*
G01X-110420D02*
X-109780D01*
G01X-110100D02*
Y-64367D01*
G01X-110420D02*
X-109780D01*
G01X-107900D02*
X-108113Y-64325D01*
X-108300Y-64159D01*
X-108460Y-63909D01*
X-108567Y-63617D01*
X-108620Y-63284D01*
Y-62950D01*
X-108567Y-62617D01*
X-108460Y-62325D01*
X-108300Y-62075D01*
X-108113Y-61909D01*
X-107900Y-61867D01*
X-107687Y-61909D01*
X-107500Y-62075D01*
X-107340Y-62325D01*
X-107233Y-62617D01*
X-107180Y-62950D01*
Y-63284D01*
X-107233Y-63617D01*
X-107340Y-63909D01*
X-107500Y-64159D01*
X-107687Y-64325D01*
X-107900Y-64367D01*
G01X-106313D02*
Y-61867D01*
X-105087Y-64367D01*
Y-61867D01*
G01X-100713Y-62075D02*
X-100873Y-61950D01*
X-101060Y-61867D01*
X-101273D01*
X-101513Y-61992D01*
X-101700Y-62200D01*
X-101833Y-62450D01*
X-101940Y-62867D01*
X-101967Y-63242D01*
X-101913Y-63617D01*
X-101833Y-63867D01*
X-101673Y-64117D01*
X-101487Y-64284D01*
X-101300Y-64367D01*
X-101113D01*
X-100927Y-64284D01*
X-100767Y-64159D01*
X-100633Y-63992D01*
G01X-99660Y-64367D02*
Y-61867D01*
G01X-98540D02*
Y-64367D01*
G01Y-63117D02*
X-99660D01*
G01X-97567Y-64367D02*
X-96900Y-61867D01*
X-96233Y-64367D01*
G01X-96473Y-63492D02*
X-97327D01*
G01X-95233Y-64367D02*
Y-61867D01*
X-94567D01*
X-94353Y-61992D01*
X-94220Y-62159D01*
X-94167Y-62492D01*
X-94220Y-62825D01*
X-94380Y-63034D01*
X-94567Y-63159D01*
X-95233D01*
G01X-94567D02*
X-94167Y-64367D01*
G01X-92500Y-61867D02*
Y-64367D01*
G01X-93113Y-61867D02*
X-91887D01*
G01X-149400Y-65200D02*
X-147800D01*
G01X-147200D02*
X-145600D01*
G01X-145000D02*
X-143400D01*
G01X-142800D02*
X-141200D01*
G01X-140600D02*
X-139000D01*
G01X-138400D02*
X-136800D01*
G01X-136200D02*
X-134600D01*
G01X-134000D02*
X-132400D01*
G01X-131800D02*
X-130200D01*
G01X-129600D02*
X-128000D01*
G01X-127400D02*
X-125800D01*
G01X-125200D02*
X-123600D01*
G01X-123000D02*
X-121400D01*
G01X-120800D02*
X-119200D01*
G01X-118600D02*
X-117000D01*
G01X-116400D02*
X-114800D01*
G01X-114200D02*
X-112600D01*
G01X-112000D02*
X-110400D01*
G01X-109800D02*
X-108200D01*
G01X-107600D02*
X-106000D01*
G01X-105400D02*
X-103800D01*
G01X-103200D02*
X-101600D01*
G01X-101000D02*
X-99400D01*
G01X-98800D02*
X-97200D01*
G01X-96600D02*
X-95000D01*
G01X-94400D02*
X-92800D01*
G01X-92200D02*
X-90600D01*
G01X-143100Y-66367D02*
Y-68867D01*
G01X-143713Y-66367D02*
X-142487D01*
G01X-140900Y-68867D02*
X-141113Y-68825D01*
X-141300Y-68659D01*
X-141460Y-68409D01*
X-141567Y-68117D01*
X-141620Y-67784D01*
Y-67450D01*
X-141567Y-67117D01*
X-141460Y-66825D01*
X-141300Y-66575D01*
X-141113Y-66409D01*
X-140900Y-66367D01*
X-140687Y-66409D01*
X-140500Y-66575D01*
X-140340Y-66825D01*
X-140233Y-67117D01*
X-140180Y-67450D01*
Y-67784D01*
X-140233Y-68117D01*
X-140340Y-68409D01*
X-140500Y-68659D01*
X-140687Y-68825D01*
X-140900Y-68867D01*
G01X-138700Y-66367D02*
Y-68867D01*
G01X-139313Y-66367D02*
X-138087D01*
G01X-137167Y-68867D02*
X-136500Y-66367D01*
X-135833Y-68867D01*
G01X-136073Y-67992D02*
X-136927D01*
G01X-134833Y-66367D02*
Y-68867D01*
X-133767D01*
G01X-129900Y-66367D02*
Y-68867D01*
G01X-130513Y-66367D02*
X-129287D01*
G01X-128260Y-68867D02*
Y-66367D01*
G01X-127140D02*
Y-68867D01*
G01Y-67617D02*
X-128260D01*
G01X-125820Y-66367D02*
X-125180D01*
G01X-125500D02*
Y-68867D01*
G01X-125820D02*
X-125180D01*
G01X-122713Y-66575D02*
X-122873Y-66450D01*
X-123060Y-66367D01*
X-123273D01*
X-123513Y-66492D01*
X-123700Y-66700D01*
X-123833Y-66950D01*
X-123940Y-67367D01*
X-123967Y-67742D01*
X-123913Y-68117D01*
X-123833Y-68367D01*
X-123673Y-68617D01*
X-123487Y-68784D01*
X-123300Y-68867D01*
X-123113D01*
X-122927Y-68784D01*
X-122767Y-68659D01*
X-122633Y-68492D01*
G01X-121687Y-68867D02*
Y-66367D01*
G01X-120673D02*
X-121687Y-67909D01*
G01X-120513Y-68867D02*
X-121233Y-67200D01*
G01X-119513Y-68867D02*
Y-66367D01*
X-118287Y-68867D01*
Y-66367D01*
G01X-116167Y-68867D02*
X-117233D01*
Y-66367D01*
X-116167D01*
G01X-116593Y-67575D02*
X-117233D01*
G01X-115060Y-68534D02*
X-114847Y-68742D01*
X-114607Y-68867D01*
X-114393D01*
X-114180Y-68742D01*
X-114020Y-68534D01*
X-113940Y-68242D01*
X-113993Y-67950D01*
X-114127Y-67700D01*
X-114367Y-67534D01*
X-114687Y-67450D01*
X-114873Y-67284D01*
X-114953Y-66992D01*
X-114900Y-66700D01*
X-114767Y-66492D01*
X-114580Y-66367D01*
X-114393D01*
X-114207Y-66450D01*
X-114047Y-66659D01*
G01X-112860Y-68534D02*
X-112647Y-68742D01*
X-112407Y-68867D01*
X-112193D01*
X-111980Y-68742D01*
X-111820Y-68534D01*
X-111740Y-68242D01*
X-111793Y-67950D01*
X-111927Y-67700D01*
X-112167Y-67534D01*
X-112487Y-67450D01*
X-112673Y-67284D01*
X-112753Y-66992D01*
X-112700Y-66700D01*
X-112567Y-66492D01*
X-112380Y-66367D01*
X-112193D01*
X-112007Y-66450D01*
X-111847Y-66659D01*
G01X-108407Y-67825D02*
X-108220Y-67534D01*
X-108060Y-67367D01*
X-107847Y-67284D01*
X-107660Y-67367D01*
X-107527Y-67534D01*
X-107420Y-67784D01*
X-107393Y-68075D01*
X-107420Y-68325D01*
X-107527Y-68575D01*
X-107687Y-68784D01*
X-107873Y-68867D01*
X-108087Y-68784D01*
X-108273Y-68534D01*
X-108380Y-68159D01*
X-108407Y-67742D01*
X-108353Y-67200D01*
X-108273Y-66909D01*
X-108140Y-66617D01*
X-107953Y-66409D01*
X-107767Y-66367D01*
X-107580Y-66450D01*
X-107447Y-66659D01*
G01X-105380Y-68867D02*
Y-66367D01*
X-106367Y-68159D01*
X-105033D01*
G01X-101993Y-68867D02*
Y-66367D01*
X-101300Y-68450D01*
X-100607Y-66367D01*
Y-68867D01*
G01X-99420Y-66367D02*
X-98780D01*
G01X-99100D02*
Y-68867D01*
G01X-99420D02*
X-98780D01*
G01X-97433Y-66367D02*
Y-68867D01*
X-96367D01*
G01X-122500Y146797D02*
X-125000D01*
X-124500Y146477D01*
G01X-122500D02*
Y147117D01*
G01X-123333Y148650D02*
Y149344D01*
G01X-124583Y150690D02*
X-124833Y150850D01*
X-124958Y151037D01*
X-125000Y151250D01*
X-124917Y151517D01*
X-124708Y151704D01*
X-124458Y151757D01*
X-124208Y151730D01*
X-124000Y151624D01*
X-123583Y151090D01*
X-123292Y150850D01*
X-122875Y150690D01*
X-122500Y150637D01*
Y151757D01*
G01X-87533Y-51395D02*
Y-53895D01*
X-86467D01*
G01X-85307Y-51812D02*
X-85147Y-51562D01*
X-84960Y-51437D01*
X-84747Y-51395D01*
X-84480Y-51478D01*
X-84293Y-51687D01*
X-84240Y-51937D01*
X-84267Y-52187D01*
X-84373Y-52395D01*
X-84907Y-52812D01*
X-85147Y-53103D01*
X-85307Y-53520D01*
X-85360Y-53895D01*
X-84240D01*
G01X-80187Y-52562D02*
X-80080Y-52437D01*
X-80000Y-52228D01*
X-79947Y-51937D01*
X-80000Y-51687D01*
X-80107Y-51520D01*
X-80293Y-51395D01*
X-81013D01*
Y-53895D01*
X-80133D01*
X-79947Y-53728D01*
X-79840Y-53478D01*
X-79787Y-53187D01*
X-79840Y-52895D01*
X-80000Y-52645D01*
X-80187Y-52562D01*
X-81013D01*
G01X-78200Y-53895D02*
X-78413Y-53853D01*
X-78600Y-53687D01*
X-78760Y-53437D01*
X-78867Y-53145D01*
X-78920Y-52812D01*
Y-52478D01*
X-78867Y-52145D01*
X-78760Y-51853D01*
X-78600Y-51603D01*
X-78413Y-51437D01*
X-78200Y-51395D01*
X-77987Y-51437D01*
X-77800Y-51603D01*
X-77640Y-51853D01*
X-77533Y-52145D01*
X-77480Y-52478D01*
Y-52812D01*
X-77533Y-53145D01*
X-77640Y-53437D01*
X-77800Y-53687D01*
X-77987Y-53853D01*
X-78200Y-53895D01*
G01X-76000Y-51395D02*
Y-53895D01*
G01X-76613Y-51395D02*
X-75387D01*
G01X-73800D02*
Y-53895D01*
G01X-74413Y-51395D02*
X-73187D01*
G01X-71600Y-53895D02*
X-71813Y-53853D01*
X-72000Y-53687D01*
X-72160Y-53437D01*
X-72267Y-53145D01*
X-72320Y-52812D01*
Y-52478D01*
X-72267Y-52145D01*
X-72160Y-51853D01*
X-72000Y-51603D01*
X-71813Y-51437D01*
X-71600Y-51395D01*
X-71387Y-51437D01*
X-71200Y-51603D01*
X-71040Y-51853D01*
X-70933Y-52145D01*
X-70880Y-52478D01*
Y-52812D01*
X-70933Y-53145D01*
X-71040Y-53437D01*
X-71200Y-53687D01*
X-71387Y-53853D01*
X-71600Y-53895D01*
G01X-70093D02*
Y-51395D01*
X-69400Y-53478D01*
X-68707Y-51395D01*
Y-53895D01*
G01X-64413Y-51603D02*
X-64573Y-51478D01*
X-64760Y-51395D01*
X-64973D01*
X-65213Y-51520D01*
X-65400Y-51728D01*
X-65533Y-51978D01*
X-65640Y-52395D01*
X-65667Y-52770D01*
X-65613Y-53145D01*
X-65533Y-53395D01*
X-65373Y-53645D01*
X-65187Y-53812D01*
X-65000Y-53895D01*
X-64813D01*
X-64627Y-53812D01*
X-64467Y-53687D01*
X-64333Y-53520D01*
G01X-62800Y-53895D02*
X-63013Y-53853D01*
X-63200Y-53687D01*
X-63360Y-53437D01*
X-63467Y-53145D01*
X-63520Y-52812D01*
Y-52478D01*
X-63467Y-52145D01*
X-63360Y-51853D01*
X-63200Y-51603D01*
X-63013Y-51437D01*
X-62800Y-51395D01*
X-62587Y-51437D01*
X-62400Y-51603D01*
X-62240Y-51853D01*
X-62133Y-52145D01*
X-62080Y-52478D01*
Y-52812D01*
X-62133Y-53145D01*
X-62240Y-53437D01*
X-62400Y-53687D01*
X-62587Y-53853D01*
X-62800Y-53895D01*
G01X-61213D02*
Y-51395D01*
X-59987Y-53895D01*
Y-51395D01*
G01X-58987Y-53895D02*
Y-51395D01*
X-58453D01*
X-58240Y-51520D01*
X-58080Y-51687D01*
X-57947Y-51937D01*
X-57840Y-52228D01*
X-57813Y-52645D01*
X-57840Y-53062D01*
X-57947Y-53353D01*
X-58080Y-53603D01*
X-58240Y-53770D01*
X-58453Y-53895D01*
X-58987D01*
G01X-56787Y-51395D02*
Y-53187D01*
X-56680Y-53562D01*
X-56467Y-53812D01*
X-56200Y-53895D01*
X-55933Y-53812D01*
X-55720Y-53562D01*
X-55613Y-53187D01*
Y-51395D01*
G01X-53413Y-51603D02*
X-53573Y-51478D01*
X-53760Y-51395D01*
X-53973D01*
X-54213Y-51520D01*
X-54400Y-51728D01*
X-54533Y-51978D01*
X-54640Y-52395D01*
X-54667Y-52770D01*
X-54613Y-53145D01*
X-54533Y-53395D01*
X-54373Y-53645D01*
X-54187Y-53812D01*
X-54000Y-53895D01*
X-53813D01*
X-53627Y-53812D01*
X-53467Y-53687D01*
X-53333Y-53520D01*
G01X-51800Y-51395D02*
Y-53895D01*
G01X-52413Y-51395D02*
X-51187D01*
G01X-49600Y-53895D02*
X-49813Y-53853D01*
X-50000Y-53687D01*
X-50160Y-53437D01*
X-50267Y-53145D01*
X-50320Y-52812D01*
Y-52478D01*
X-50267Y-52145D01*
X-50160Y-51853D01*
X-50000Y-51603D01*
X-49813Y-51437D01*
X-49600Y-51395D01*
X-49387Y-51437D01*
X-49200Y-51603D01*
X-49040Y-51853D01*
X-48933Y-52145D01*
X-48880Y-52478D01*
Y-52812D01*
X-48933Y-53145D01*
X-49040Y-53437D01*
X-49200Y-53687D01*
X-49387Y-53853D01*
X-49600Y-53895D01*
G01X-47933D02*
Y-51395D01*
X-47267D01*
X-47053Y-51520D01*
X-46920Y-51687D01*
X-46867Y-52020D01*
X-46920Y-52353D01*
X-47080Y-52562D01*
X-47267Y-52687D01*
X-47933D01*
G01X-47267D02*
X-46867Y-53895D01*
G01X-43347Y-53062D02*
X-42653D01*
G01X-38013Y-51603D02*
X-38173Y-51478D01*
X-38360Y-51395D01*
X-38573D01*
X-38813Y-51520D01*
X-39000Y-51728D01*
X-39133Y-51978D01*
X-39240Y-52395D01*
X-39267Y-52770D01*
X-39213Y-53145D01*
X-39133Y-53395D01*
X-38973Y-53645D01*
X-38787Y-53812D01*
X-38600Y-53895D01*
X-38413D01*
X-38227Y-53812D01*
X-38067Y-53687D01*
X-37933Y-53520D01*
G01X-36400Y-53895D02*
X-36613Y-53853D01*
X-36800Y-53687D01*
X-36960Y-53437D01*
X-37067Y-53145D01*
X-37120Y-52812D01*
Y-52478D01*
X-37067Y-52145D01*
X-36960Y-51853D01*
X-36800Y-51603D01*
X-36613Y-51437D01*
X-36400Y-51395D01*
X-36187Y-51437D01*
X-36000Y-51603D01*
X-35840Y-51853D01*
X-35733Y-52145D01*
X-35680Y-52478D01*
Y-52812D01*
X-35733Y-53145D01*
X-35840Y-53437D01*
X-36000Y-53687D01*
X-36187Y-53853D01*
X-36400Y-53895D01*
G01X-34733D02*
Y-51395D01*
X-34093D01*
X-33880Y-51520D01*
X-33720Y-51812D01*
X-33667Y-52145D01*
X-33720Y-52478D01*
X-33853Y-52728D01*
X-34093Y-52853D01*
X-34733D01*
G01X-32533Y-53895D02*
Y-51395D01*
X-31893D01*
X-31680Y-51520D01*
X-31520Y-51812D01*
X-31467Y-52145D01*
X-31520Y-52478D01*
X-31653Y-52728D01*
X-31893Y-52853D01*
X-32533D01*
G01X-29267Y-53895D02*
X-30333D01*
Y-51395D01*
X-29267D01*
G01X-29693Y-52603D02*
X-30333D01*
G01X-28133Y-53895D02*
Y-51395D01*
X-27467D01*
X-27253Y-51520D01*
X-27120Y-51687D01*
X-27067Y-52020D01*
X-27120Y-52353D01*
X-27280Y-52562D01*
X-27467Y-52687D01*
X-28133D01*
G01X-27467D02*
X-27067Y-53895D01*
G01X-23200D02*
Y-51395D01*
X-23520Y-51895D01*
G01Y-53895D02*
X-22880D01*
G01X-21000Y-53978D02*
X-21053Y-53937D01*
Y-53853D01*
X-21000Y-53812D01*
X-20947Y-53853D01*
Y-53937D01*
X-21000Y-53978D01*
G01X-18480Y-53895D02*
Y-51395D01*
X-19467Y-53187D01*
X-18133D01*
G01X-15093Y-53895D02*
Y-51395D01*
X-14400Y-53478D01*
X-13707Y-51395D01*
Y-53895D01*
G01X-12520Y-51395D02*
X-11880D01*
G01X-12200D02*
Y-53895D01*
G01X-12520D02*
X-11880D01*
G01X-10533Y-51395D02*
Y-53895D01*
X-9467D01*
G01X-83187Y-58317D02*
X-82013Y-56484D01*
G01X-82600Y-56151D02*
Y-58651D01*
G01X-82013Y-58317D02*
X-83187Y-56484D01*
G01X-83400Y-57401D02*
X-81800D01*
G01X-76560Y-57901D02*
X-76347Y-58109D01*
X-76107Y-58234D01*
X-75893D01*
X-75680Y-58109D01*
X-75520Y-57901D01*
X-75440Y-57609D01*
X-75493Y-57317D01*
X-75627Y-57067D01*
X-75867Y-56901D01*
X-76187Y-56817D01*
X-76373Y-56651D01*
X-76453Y-56359D01*
X-76400Y-56067D01*
X-76267Y-55859D01*
X-76080Y-55734D01*
X-75893D01*
X-75707Y-55817D01*
X-75547Y-56026D01*
G01X-74387Y-55734D02*
Y-57526D01*
X-74280Y-57901D01*
X-74067Y-58151D01*
X-73800Y-58234D01*
X-73533Y-58151D01*
X-73320Y-57901D01*
X-73213Y-57526D01*
Y-55734D01*
G01X-72133Y-58234D02*
Y-55734D01*
X-71467D01*
X-71253Y-55859D01*
X-71120Y-56026D01*
X-71067Y-56359D01*
X-71120Y-56692D01*
X-71280Y-56901D01*
X-71467Y-57026D01*
X-72133D01*
G01X-71467D02*
X-71067Y-58234D01*
G01X-69907D02*
Y-55734D01*
X-68893D01*
G01X-69267Y-56942D02*
X-69907D01*
G01X-67867Y-58234D02*
X-67200Y-55734D01*
X-66533Y-58234D01*
G01X-66773Y-57359D02*
X-67627D01*
G01X-64413Y-55942D02*
X-64573Y-55817D01*
X-64760Y-55734D01*
X-64973D01*
X-65213Y-55859D01*
X-65400Y-56067D01*
X-65533Y-56317D01*
X-65640Y-56734D01*
X-65667Y-57109D01*
X-65613Y-57484D01*
X-65533Y-57734D01*
X-65373Y-57984D01*
X-65187Y-58151D01*
X-65000Y-58234D01*
X-64813D01*
X-64627Y-58151D01*
X-64467Y-58026D01*
X-64333Y-57859D01*
G01X-62267Y-58234D02*
X-63333D01*
Y-55734D01*
X-62267D01*
G01X-62693Y-56942D02*
X-63333D01*
G01X-58747Y-57401D02*
X-58053D01*
G01X-54667Y-58234D02*
X-54000Y-55734D01*
X-53333Y-58234D01*
G01X-53573Y-57359D02*
X-54427D01*
G01X-52120Y-55734D02*
X-51480D01*
G01X-51800D02*
Y-58234D01*
G01X-52120D02*
X-51480D01*
G01X-50133D02*
Y-55734D01*
X-49467D01*
X-49253Y-55859D01*
X-49120Y-56026D01*
X-49067Y-56359D01*
X-49120Y-56692D01*
X-49280Y-56901D01*
X-49467Y-57026D01*
X-50133D01*
G01X-49467D02*
X-49067Y-58234D01*
G01X-45200Y-55734D02*
X-45413Y-55817D01*
X-45573Y-56026D01*
X-45680Y-56276D01*
X-45760Y-56609D01*
X-45787Y-56984D01*
X-45760Y-57359D01*
X-45680Y-57692D01*
X-45573Y-57942D01*
X-45413Y-58151D01*
X-45200Y-58234D01*
X-44987Y-58151D01*
X-44827Y-57942D01*
X-44720Y-57692D01*
X-44640Y-57359D01*
X-44613Y-56984D01*
X-44640Y-56609D01*
X-44720Y-56276D01*
X-44827Y-56026D01*
X-44987Y-55817D01*
X-45200Y-55734D01*
G01X-41493Y-58234D02*
Y-55734D01*
X-40800Y-57817D01*
X-40107Y-55734D01*
Y-58234D01*
G01X-38920Y-55734D02*
X-38280D01*
G01X-38600D02*
Y-58234D01*
G01X-38920D02*
X-38280D01*
G01X-36933Y-55734D02*
Y-58234D01*
X-35867D01*
G01X-83187Y44215D02*
X-82013Y46048D01*
G01X-82600Y46381D02*
Y43881D01*
G01X-82013Y44215D02*
X-83187Y46048D01*
G01X-83400Y45131D02*
X-81800D01*
G01X-76587Y44298D02*
Y46798D01*
X-76053D01*
X-75840Y46673D01*
X-75680Y46506D01*
X-75547Y46256D01*
X-75440Y45965D01*
X-75413Y45548D01*
X-75440Y45131D01*
X-75547Y44840D01*
X-75680Y44590D01*
X-75840Y44423D01*
X-76053Y44298D01*
X-76587D01*
G01X-74120Y46798D02*
X-73480D01*
G01X-73800D02*
Y44298D01*
G01X-74120D02*
X-73480D01*
G01X-71067D02*
X-72133D01*
Y46798D01*
X-71067D01*
G01X-71493Y45590D02*
X-72133D01*
G01X-69933Y46798D02*
Y44298D01*
X-68867D01*
G01X-66667D02*
X-67733D01*
Y46798D01*
X-66667D01*
G01X-67093Y45590D02*
X-67733D01*
G01X-64413Y46590D02*
X-64573Y46715D01*
X-64760Y46798D01*
X-64973D01*
X-65213Y46673D01*
X-65400Y46465D01*
X-65533Y46215D01*
X-65640Y45798D01*
X-65667Y45423D01*
X-65613Y45048D01*
X-65533Y44798D01*
X-65373Y44548D01*
X-65187Y44381D01*
X-65000Y44298D01*
X-64813D01*
X-64627Y44381D01*
X-64467Y44506D01*
X-64333Y44673D01*
G01X-62800Y46798D02*
Y44298D01*
G01X-63413Y46798D02*
X-62187D01*
G01X-61133Y44298D02*
Y46798D01*
X-60467D01*
X-60253Y46673D01*
X-60120Y46506D01*
X-60067Y46173D01*
X-60120Y45840D01*
X-60280Y45631D01*
X-60467Y45506D01*
X-61133D01*
G01X-60467D02*
X-60067Y44298D01*
G01X-58720Y46798D02*
X-58080D01*
G01X-58400D02*
Y44298D01*
G01X-58720D02*
X-58080D01*
G01X-55613Y46590D02*
X-55773Y46715D01*
X-55960Y46798D01*
X-56173D01*
X-56413Y46673D01*
X-56600Y46465D01*
X-56733Y46215D01*
X-56840Y45798D01*
X-56867Y45423D01*
X-56813Y45048D01*
X-56733Y44798D01*
X-56573Y44548D01*
X-56387Y44381D01*
X-56200Y44298D01*
X-56013D01*
X-55827Y44381D01*
X-55667Y44506D01*
X-55533Y44673D01*
G01X-52147Y45131D02*
X-51453D01*
G01X-47907Y44298D02*
Y46798D01*
X-46893D01*
G01X-47267Y45590D02*
X-47907D01*
G01X-45733Y44298D02*
Y46798D01*
X-45067D01*
X-44853Y46673D01*
X-44720Y46506D01*
X-44667Y46173D01*
X-44720Y45840D01*
X-44880Y45631D01*
X-45067Y45506D01*
X-45733D01*
G01X-45067D02*
X-44667Y44298D01*
G01X-43347Y45131D02*
X-42653D01*
G01X-40480Y44298D02*
Y46798D01*
X-41467Y45006D01*
X-40133D01*
G01X-36907Y45340D02*
X-36720Y45631D01*
X-36560Y45798D01*
X-36347Y45881D01*
X-36160Y45798D01*
X-36027Y45631D01*
X-35920Y45381D01*
X-35893Y45090D01*
X-35920Y44840D01*
X-36027Y44590D01*
X-36187Y44381D01*
X-36373Y44298D01*
X-36587Y44381D01*
X-36773Y44631D01*
X-36880Y45006D01*
X-36907Y45423D01*
X-36853Y45965D01*
X-36773Y46256D01*
X-36640Y46548D01*
X-36453Y46756D01*
X-36267Y46798D01*
X-36080Y46715D01*
X-35947Y46506D01*
G01X-34200Y44298D02*
Y46798D01*
X-34520Y46298D01*
G01Y44298D02*
X-33880D01*
G01X-32000Y44215D02*
X-32053Y44256D01*
Y44340D01*
X-32000Y44381D01*
X-31947Y44340D01*
Y44256D01*
X-32000Y44215D01*
G01X-30307Y46381D02*
X-30147Y46631D01*
X-29960Y46756D01*
X-29747Y46798D01*
X-29480Y46715D01*
X-29293Y46506D01*
X-29240Y46256D01*
X-29267Y46006D01*
X-29373Y45798D01*
X-29907Y45381D01*
X-30147Y45090D01*
X-30307Y44673D01*
X-30360Y44298D01*
X-29240D01*
G01X-26093D02*
Y46798D01*
X-25400Y44715D01*
X-24707Y46798D01*
Y44298D01*
G01X-23520Y46798D02*
X-22880D01*
G01X-23200D02*
Y44298D01*
G01X-23520D02*
X-22880D01*
G01X-21533Y46798D02*
Y44298D01*
X-20467D01*
G01X-83187Y144247D02*
X-82013Y146080D01*
G01X-82600Y146413D02*
Y143913D01*
G01X-82013Y144247D02*
X-83187Y146080D01*
G01X-83400Y145163D02*
X-81800D01*
G01X-76560Y144663D02*
X-76347Y144455D01*
X-76107Y144330D01*
X-75893D01*
X-75680Y144455D01*
X-75520Y144663D01*
X-75440Y144955D01*
X-75493Y145247D01*
X-75627Y145497D01*
X-75867Y145663D01*
X-76187Y145747D01*
X-76373Y145913D01*
X-76453Y146205D01*
X-76400Y146497D01*
X-76267Y146705D01*
X-76080Y146830D01*
X-75893D01*
X-75707Y146747D01*
X-75547Y146538D01*
G01X-74387Y146830D02*
Y145038D01*
X-74280Y144663D01*
X-74067Y144413D01*
X-73800Y144330D01*
X-73533Y144413D01*
X-73320Y144663D01*
X-73213Y145038D01*
Y146830D01*
G01X-72133Y144330D02*
Y146830D01*
X-71467D01*
X-71253Y146705D01*
X-71120Y146538D01*
X-71067Y146205D01*
X-71120Y145872D01*
X-71280Y145663D01*
X-71467Y145538D01*
X-72133D01*
G01X-71467D02*
X-71067Y144330D01*
G01X-69907D02*
Y146830D01*
X-68893D01*
G01X-69267Y145622D02*
X-69907D01*
G01X-67867Y144330D02*
X-67200Y146830D01*
X-66533Y144330D01*
G01X-66773Y145205D02*
X-67627D01*
G01X-64413Y146622D02*
X-64573Y146747D01*
X-64760Y146830D01*
X-64973D01*
X-65213Y146705D01*
X-65400Y146497D01*
X-65533Y146247D01*
X-65640Y145830D01*
X-65667Y145455D01*
X-65613Y145080D01*
X-65533Y144830D01*
X-65373Y144580D01*
X-65187Y144413D01*
X-65000Y144330D01*
X-64813D01*
X-64627Y144413D01*
X-64467Y144538D01*
X-64333Y144705D01*
G01X-62267Y144330D02*
X-63333D01*
Y146830D01*
X-62267D01*
G01X-62693Y145622D02*
X-63333D01*
G01X-58747Y145163D02*
X-58053D01*
G01X-54667Y144330D02*
X-54000Y146830D01*
X-53333Y144330D01*
G01X-53573Y145205D02*
X-54427D01*
G01X-52120Y146830D02*
X-51480D01*
G01X-51800D02*
Y144330D01*
G01X-52120D02*
X-51480D01*
G01X-50133D02*
Y146830D01*
X-49467D01*
X-49253Y146705D01*
X-49120Y146538D01*
X-49067Y146205D01*
X-49120Y145872D01*
X-49280Y145663D01*
X-49467Y145538D01*
X-50133D01*
G01X-49467D02*
X-49067Y144330D01*
G01X-45200Y146830D02*
X-45413Y146747D01*
X-45573Y146538D01*
X-45680Y146288D01*
X-45760Y145955D01*
X-45787Y145580D01*
X-45760Y145205D01*
X-45680Y144872D01*
X-45573Y144622D01*
X-45413Y144413D01*
X-45200Y144330D01*
X-44987Y144413D01*
X-44827Y144622D01*
X-44720Y144872D01*
X-44640Y145205D01*
X-44613Y145580D01*
X-44640Y145955D01*
X-44720Y146288D01*
X-44827Y146538D01*
X-44987Y146747D01*
X-45200Y146830D01*
G01X-41493Y144330D02*
Y146830D01*
X-40800Y144747D01*
X-40107Y146830D01*
Y144330D01*
G01X-38920Y146830D02*
X-38280D01*
G01X-38600D02*
Y144330D01*
G01X-38920D02*
X-38280D01*
G01X-36933Y146830D02*
Y144330D01*
X-35867D01*
G01X-87533Y142664D02*
Y140164D01*
X-86467D01*
G01X-84800D02*
Y142664D01*
X-85120Y142164D01*
G01Y140164D02*
X-84480D01*
G01X-80400Y142664D02*
Y140164D01*
G01X-81013Y142664D02*
X-79787D01*
G01X-78200Y140164D02*
X-78413Y140206D01*
X-78600Y140372D01*
X-78760Y140622D01*
X-78867Y140914D01*
X-78920Y141247D01*
Y141581D01*
X-78867Y141914D01*
X-78760Y142206D01*
X-78600Y142456D01*
X-78413Y142622D01*
X-78200Y142664D01*
X-77987Y142622D01*
X-77800Y142456D01*
X-77640Y142206D01*
X-77533Y141914D01*
X-77480Y141581D01*
Y141247D01*
X-77533Y140914D01*
X-77640Y140622D01*
X-77800Y140372D01*
X-77987Y140206D01*
X-78200Y140164D01*
G01X-76533D02*
Y142664D01*
X-75893D01*
X-75680Y142539D01*
X-75520Y142247D01*
X-75467Y141914D01*
X-75520Y141581D01*
X-75653Y141331D01*
X-75893Y141206D01*
X-76533D01*
G01X-71013Y142456D02*
X-71173Y142581D01*
X-71360Y142664D01*
X-71573D01*
X-71813Y142539D01*
X-72000Y142331D01*
X-72133Y142081D01*
X-72240Y141664D01*
X-72267Y141289D01*
X-72213Y140914D01*
X-72133Y140664D01*
X-71973Y140414D01*
X-71787Y140247D01*
X-71600Y140164D01*
X-71413D01*
X-71227Y140247D01*
X-71067Y140372D01*
X-70933Y140539D01*
G01X-69400Y140164D02*
X-69613Y140206D01*
X-69800Y140372D01*
X-69960Y140622D01*
X-70067Y140914D01*
X-70120Y141247D01*
Y141581D01*
X-70067Y141914D01*
X-69960Y142206D01*
X-69800Y142456D01*
X-69613Y142622D01*
X-69400Y142664D01*
X-69187Y142622D01*
X-69000Y142456D01*
X-68840Y142206D01*
X-68733Y141914D01*
X-68680Y141581D01*
Y141247D01*
X-68733Y140914D01*
X-68840Y140622D01*
X-69000Y140372D01*
X-69187Y140206D01*
X-69400Y140164D01*
G01X-67813D02*
Y142664D01*
X-66587Y140164D01*
Y142664D01*
G01X-65587Y140164D02*
Y142664D01*
X-65053D01*
X-64840Y142539D01*
X-64680Y142372D01*
X-64547Y142122D01*
X-64440Y141831D01*
X-64413Y141414D01*
X-64440Y140997D01*
X-64547Y140706D01*
X-64680Y140456D01*
X-64840Y140289D01*
X-65053Y140164D01*
X-65587D01*
G01X-63387Y142664D02*
Y140872D01*
X-63280Y140497D01*
X-63067Y140247D01*
X-62800Y140164D01*
X-62533Y140247D01*
X-62320Y140497D01*
X-62213Y140872D01*
Y142664D01*
G01X-60013Y142456D02*
X-60173Y142581D01*
X-60360Y142664D01*
X-60573D01*
X-60813Y142539D01*
X-61000Y142331D01*
X-61133Y142081D01*
X-61240Y141664D01*
X-61267Y141289D01*
X-61213Y140914D01*
X-61133Y140664D01*
X-60973Y140414D01*
X-60787Y140247D01*
X-60600Y140164D01*
X-60413D01*
X-60227Y140247D01*
X-60067Y140372D01*
X-59933Y140539D01*
G01X-58400Y142664D02*
Y140164D01*
G01X-59013Y142664D02*
X-57787D01*
G01X-56200Y140164D02*
X-56413Y140206D01*
X-56600Y140372D01*
X-56760Y140622D01*
X-56867Y140914D01*
X-56920Y141247D01*
Y141581D01*
X-56867Y141914D01*
X-56760Y142206D01*
X-56600Y142456D01*
X-56413Y142622D01*
X-56200Y142664D01*
X-55987Y142622D01*
X-55800Y142456D01*
X-55640Y142206D01*
X-55533Y141914D01*
X-55480Y141581D01*
Y141247D01*
X-55533Y140914D01*
X-55640Y140622D01*
X-55800Y140372D01*
X-55987Y140206D01*
X-56200Y140164D01*
G01X-54533D02*
Y142664D01*
X-53867D01*
X-53653Y142539D01*
X-53520Y142372D01*
X-53467Y142039D01*
X-53520Y141706D01*
X-53680Y141497D01*
X-53867Y141372D01*
X-54533D01*
G01X-53867D02*
X-53467Y140164D01*
G01X-49947Y140997D02*
X-49253D01*
G01X-44613Y142456D02*
X-44773Y142581D01*
X-44960Y142664D01*
X-45173D01*
X-45413Y142539D01*
X-45600Y142331D01*
X-45733Y142081D01*
X-45840Y141664D01*
X-45867Y141289D01*
X-45813Y140914D01*
X-45733Y140664D01*
X-45573Y140414D01*
X-45387Y140247D01*
X-45200Y140164D01*
X-45013D01*
X-44827Y140247D01*
X-44667Y140372D01*
X-44533Y140539D01*
G01X-43000Y140164D02*
X-43213Y140206D01*
X-43400Y140372D01*
X-43560Y140622D01*
X-43667Y140914D01*
X-43720Y141247D01*
Y141581D01*
X-43667Y141914D01*
X-43560Y142206D01*
X-43400Y142456D01*
X-43213Y142622D01*
X-43000Y142664D01*
X-42787Y142622D01*
X-42600Y142456D01*
X-42440Y142206D01*
X-42333Y141914D01*
X-42280Y141581D01*
Y141247D01*
X-42333Y140914D01*
X-42440Y140622D01*
X-42600Y140372D01*
X-42787Y140206D01*
X-43000Y140164D01*
G01X-41333D02*
Y142664D01*
X-40693D01*
X-40480Y142539D01*
X-40320Y142247D01*
X-40267Y141914D01*
X-40320Y141581D01*
X-40453Y141331D01*
X-40693Y141206D01*
X-41333D01*
G01X-39133Y140164D02*
Y142664D01*
X-38493D01*
X-38280Y142539D01*
X-38120Y142247D01*
X-38067Y141914D01*
X-38120Y141581D01*
X-38253Y141331D01*
X-38493Y141206D01*
X-39133D01*
G01X-35867Y140164D02*
X-36933D01*
Y142664D01*
X-35867D01*
G01X-36293Y141456D02*
X-36933D01*
G01X-34733Y140164D02*
Y142664D01*
X-34067D01*
X-33853Y142539D01*
X-33720Y142372D01*
X-33667Y142039D01*
X-33720Y141706D01*
X-33880Y141497D01*
X-34067Y141372D01*
X-34733D01*
G01X-34067D02*
X-33667Y140164D01*
G01X-29800D02*
Y142664D01*
X-30120Y142164D01*
G01Y140164D02*
X-29480D01*
G01X-27600Y140081D02*
X-27653Y140122D01*
Y140206D01*
X-27600Y140247D01*
X-27547Y140206D01*
Y140122D01*
X-27600Y140081D01*
G01X-25080Y140164D02*
Y142664D01*
X-26067Y140872D01*
X-24733D01*
G01X-21693Y140164D02*
Y142664D01*
X-21000Y140581D01*
X-20307Y142664D01*
Y140164D01*
G01X-19120Y142664D02*
X-18480D01*
G01X-18800D02*
Y140164D01*
G01X-19120D02*
X-18480D01*
G01X-17133Y142664D02*
Y140164D01*
X-16067D01*
M02*
