G04 ================== begin FILE IDENTIFICATION RECORD ==================*
G04 Layout Name:  C:/Users/Bogdan/Desktop/ETTI/An 3 - Sem 1/P1/allegro/P1 BUN.brd*
G04 Film Name:    SMTOP*
G04 File Format:  Gerber RS274X*
G04 File Origin:  Cadence Allegro 17.2-S025*
G04 Origin Date:  Sat Dec 09 22:03:42 2023*
G04 *
G04 Layer:  VIA CLASS/SOLDERMASK_TOP*
G04 Layer:  PIN/SOLDERMASK_TOP*
G04 Layer:  PACKAGE GEOMETRY/SOLDERMASK_TOP*
G04 Layer:  DRC ERROR CLASS/SOLDERMASK_TOP*
G04 Layer:  BOARD GEOMETRY/SOLDERMASK_TOP*
G04 *
G04 Offset:    (0.00 0.00)*
G04 Mirror:    No*
G04 Mode:      Positive*
G04 Rotation:  0*
G04 FullContactRelief:  No*
G04 UndefLineWidth:     0.10*
G04 ================== end FILE IDENTIFICATION RECORD ====================*
%FSLAX25Y25*MOIN*%
%IR0*IPPOS*OFA0.00000B0.00000*MIA0B0*SFA1.00000B1.00000*%
%ADD22R,.13X.09*%
%ADD13R,.09X.13*%
%ADD10C,.08*%
%ADD19C,.038*%
%ADD11R,.06X.06*%
%ADD23R,.06118X.06118*%
%ADD21R,.12811X.07299*%
%ADD17R,.046X.06*%
%ADD12R,.06X.046*%
%ADD14R,.048X.076*%
%ADD16R,.076X.048*%
%ADD15R,.058X.086*%
%ADD18R,.086X.058*%
%ADD20R,.25409X.23835*%
%ADD24R,.08874X.06118*%
%LPD*%
G75*
G54D10*
X20000Y20000D03*
X140000Y140000D03*
G54D20*
X64693Y107476D03*
G54D11*
X23000Y31000D03*
X10500Y16500D03*
Y24900D03*
X23000Y39400D03*
X10500Y37000D03*
Y45400D03*
Y57500D03*
Y65900D03*
Y115000D03*
Y123400D03*
Y96000D03*
Y104400D03*
Y134000D03*
X18900D03*
X30000Y16000D03*
X38400D03*
X49000D03*
X35000Y45500D03*
X43400D03*
X24500Y62000D03*
Y70400D03*
X37500Y73500D03*
Y81900D03*
X26000Y96000D03*
X34400D03*
X44000Y132000D03*
X52400D03*
X47600Y146500D03*
X57400Y16000D03*
X68000D03*
X76400D03*
X66500Y30500D03*
X74900D03*
X81500Y42500D03*
X56500Y45500D03*
X64900D03*
X63500Y132000D03*
X71900D03*
X76500Y146500D03*
X68100D03*
X56000D03*
X87000Y16000D03*
X95400D03*
X106000D03*
X89900Y42500D03*
X100500Y40000D03*
Y48400D03*
Y60500D03*
Y68900D03*
X111600Y146500D03*
X89500D03*
X97900D03*
X114400Y16000D03*
X125000D03*
X133400D03*
X119500Y72000D03*
X127900D03*
X141500Y149500D03*
X120000Y146500D03*
X149500Y55000D03*
Y46600D03*
Y75000D03*
Y66600D03*
Y86600D03*
Y95000D03*
Y114500D03*
Y106100D03*
Y134000D03*
Y125600D03*
X149900Y149500D03*
G54D12*
X9400Y82100D03*
X17500Y78000D03*
Y86200D03*
X62600Y61400D03*
X54500Y57300D03*
X76400Y74100D03*
X54500Y65500D03*
X81400Y131600D03*
X84500Y70000D03*
Y78200D03*
X107000Y105000D03*
Y96800D03*
X89500Y127500D03*
Y135700D03*
X115100Y100900D03*
G54D21*
X93000Y116492D03*
Y98500D03*
G54D13*
X11400Y146500D03*
X35000D03*
G54D22*
X146500Y35000D03*
Y11400D03*
G54D14*
X50000Y32500D03*
G54D23*
X115945Y40000D03*
X125000D03*
G54D24*
X120472Y62244D03*
G54D15*
X42100Y32500D03*
G54D16*
X26000Y116000D03*
G54D17*
X41600Y115600D03*
X37500Y107500D03*
X45700D03*
X110600Y135600D03*
X106500Y127500D03*
X127500Y116000D03*
X135700D03*
X131600Y124100D03*
X114700Y127500D03*
G54D18*
X26000Y123900D03*
G54D19*
X81500Y54500D03*
X58000Y85500D03*
X65000Y72500D03*
X58000Y139000D03*
X89900Y54500D03*
X107500D03*
X99500Y88000D03*
X100100Y135600D03*
X136360Y35140D03*
Y72000D03*
X118500Y108900D03*
X128000Y103500D03*
X136500Y133000D03*
M02*
