G04 ================== begin FILE IDENTIFICATION RECORD ==================*
G04 Layout Name:  C:/Users/Bogdan/Desktop/ETTI/An 3 - Sem 1/P1/allegro/P1 BUN.brd*
G04 Film Name:    SSTOP*
G04 File Format:  Gerber RS274X*
G04 File Origin:  Cadence Allegro 17.2-S025*
G04 Origin Date:  Sat Dec 09 22:03:42 2023*
G04 *
G04 Layer:  REF DES/SILKSCREEN_TOP*
G04 Layer:  PACKAGE GEOMETRY/SILKSCREEN_TOP*
G04 Layer:  BOARD GEOMETRY/SILKSCREEN_TOP*
G04 *
G04 Offset:    (0.00 0.00)*
G04 Mirror:    No*
G04 Mode:      Positive*
G04 Rotation:  0*
G04 FullContactRelief:  No*
G04 UndefLineWidth:     0.10*
G04 ================== end FILE IDENTIFICATION RECORD ====================*
%FSLAX25Y25*MOIN*%
%IR0*IPPOS*OFA0.00000B0.00000*MIA0B0*SFA1.00000B1.00000*%
%ADD10C,.0002*%
%ADD11C,.006*%
%ADD12C,.00787*%
G75*
%LPD*%
G75*
G54D10*
G01X10300Y84700D02*
Y88400D01*
X14300D01*
G01X10300Y79600D02*
Y75800D01*
X14200D01*
G01X16700Y83700D02*
Y80800D01*
G01X44200Y114700D02*
X47900D01*
Y110700D01*
G01X39100Y114700D02*
X35300D01*
Y110800D01*
G01X43200Y108300D02*
X40300D01*
G01X61700Y58800D02*
Y55100D01*
X57700D01*
G01X55300Y59800D02*
Y62700D01*
G01X77300Y76700D02*
Y80400D01*
X81300D01*
G01X77300Y71600D02*
Y67800D01*
X81200D01*
G01X61700Y63900D02*
Y67700D01*
X57800D01*
G01X83700Y75700D02*
Y72800D01*
G01X107800Y99300D02*
Y102200D01*
G01X108100Y134700D02*
X104300D01*
Y130800D01*
G01X112200Y128300D02*
X109300D01*
G01X82300Y134200D02*
Y137900D01*
X86300D01*
G01X82300Y129100D02*
Y125300D01*
X86200D01*
G01X88700Y133200D02*
Y130300D01*
G01X134200Y123200D02*
X137900D01*
Y119200D01*
G01X129100Y123200D02*
X125300D01*
Y119300D01*
G01X133200Y116800D02*
X130300D01*
G01X114200Y98300D02*
Y94600D01*
X110200D01*
G01X114200Y103400D02*
Y107200D01*
X110300D01*
G01X113200Y134700D02*
X116900D01*
Y130700D01*
G54D11*
G01X26750Y27200D02*
X19250D01*
G01D02*
Y43200D01*
G01X6783Y7500D02*
Y10500D01*
X7492D01*
X7718Y10350D01*
X7860Y10150D01*
X7917Y9750D01*
X7860Y9350D01*
X7690Y9100D01*
X7492Y8950D01*
X6783D01*
G01X7492D02*
X7917Y7500D01*
G01X9550D02*
Y10500D01*
X9210Y9900D01*
G01Y7500D02*
X9890D01*
G01X12090D02*
Y10500D01*
X11042Y8350D01*
X12458D01*
G01X14250Y28700D02*
Y12700D01*
G01D02*
X6750D01*
G01D02*
Y28700D01*
G01D02*
X14250D01*
G01X19250Y43200D02*
X26750D01*
G01X18000Y36283D02*
X15000D01*
Y36992D01*
X15150Y37218D01*
X15350Y37360D01*
X15750Y37417D01*
X16150Y37360D01*
X16400Y37190D01*
X16550Y36992D01*
Y36283D01*
G01Y36992D02*
X18000Y37417D01*
G01Y39050D02*
X15000D01*
X15600Y38710D01*
G01X18000D02*
Y39390D01*
G01X17400Y40627D02*
X17750Y40797D01*
X17950Y41023D01*
X18000Y41278D01*
X17950Y41505D01*
X17700Y41732D01*
X17400Y41873D01*
X17100Y41902D01*
X16750Y41845D01*
X16500Y41647D01*
X16400Y41448D01*
Y41193D01*
G01Y41448D02*
X16250Y41618D01*
X16000Y41760D01*
X15700Y41817D01*
X15400Y41760D01*
X15150Y41618D01*
X15000Y41363D01*
X15050Y41108D01*
X15250Y40853D01*
G01X14250Y49200D02*
Y33200D01*
G01D02*
X6750D01*
G01D02*
Y49200D01*
G01D02*
X14250D01*
G01X18500Y55283D02*
X15500D01*
Y55992D01*
X15650Y56218D01*
X15850Y56360D01*
X16250Y56417D01*
X16650Y56360D01*
X16900Y56190D01*
X17050Y55992D01*
Y55283D01*
G01Y55992D02*
X18500Y56417D01*
G01Y58050D02*
X15500D01*
X16100Y57710D01*
G01X18500D02*
Y58390D01*
G01Y60250D02*
X15500D01*
X16100Y59910D01*
G01X18500D02*
Y60590D01*
G01X14250Y69700D02*
Y53700D01*
G01D02*
X6750D01*
G01D02*
Y69700D01*
G01D02*
X14250D01*
G01X18500Y115283D02*
X15500D01*
Y115992D01*
X15650Y116218D01*
X15850Y116360D01*
X16250Y116417D01*
X16650Y116360D01*
X16900Y116190D01*
X17050Y115992D01*
Y115283D01*
G01Y115992D02*
X18500Y116417D01*
G01X17900Y117427D02*
X18250Y117597D01*
X18450Y117823D01*
X18500Y118078D01*
X18450Y118305D01*
X18200Y118532D01*
X17900Y118673D01*
X17600Y118702D01*
X17250Y118645D01*
X17000Y118447D01*
X16900Y118248D01*
Y117993D01*
G01Y118248D02*
X16750Y118418D01*
X16500Y118560D01*
X16200Y118617D01*
X15900Y118560D01*
X15650Y118418D01*
X15500Y118163D01*
X15550Y117908D01*
X15750Y117653D01*
G01X18050Y119627D02*
X18300Y119797D01*
X18450Y119995D01*
X18500Y120250D01*
X18400Y120505D01*
X18200Y120703D01*
X17850Y120845D01*
X17450Y120873D01*
X17050Y120817D01*
X16800Y120675D01*
X16600Y120477D01*
X16550Y120278D01*
X16600Y120080D01*
X16800Y119825D01*
X15500Y119910D01*
Y120675D01*
G01X14250Y127200D02*
Y111200D01*
G01D02*
X6750D01*
G01D02*
Y127200D01*
G01X18500Y101283D02*
X15500D01*
Y101992D01*
X15650Y102218D01*
X15850Y102360D01*
X16250Y102417D01*
X16650Y102360D01*
X16900Y102190D01*
X17050Y101992D01*
Y101283D01*
G01Y101992D02*
X18500Y102417D01*
G01X17900Y103427D02*
X18250Y103597D01*
X18450Y103823D01*
X18500Y104078D01*
X18450Y104305D01*
X18200Y104532D01*
X17900Y104673D01*
X17600Y104702D01*
X17250Y104645D01*
X17000Y104447D01*
X16900Y104248D01*
Y103993D01*
G01Y104248D02*
X16750Y104418D01*
X16500Y104560D01*
X16200Y104617D01*
X15900Y104560D01*
X15650Y104418D01*
X15500Y104163D01*
X15550Y103908D01*
X15750Y103653D01*
G01X17250Y105712D02*
X16900Y105910D01*
X16700Y106080D01*
X16600Y106307D01*
X16700Y106505D01*
X16900Y106647D01*
X17200Y106760D01*
X17550Y106788D01*
X17850Y106760D01*
X18150Y106647D01*
X18400Y106477D01*
X18500Y106278D01*
X18400Y106052D01*
X18100Y105853D01*
X17650Y105740D01*
X17150Y105712D01*
X16500Y105768D01*
X16150Y105853D01*
X15800Y105995D01*
X15550Y106193D01*
X15500Y106392D01*
X15600Y106590D01*
X15850Y106732D01*
G01X14250Y108200D02*
Y92200D01*
G01D02*
X6750D01*
G01D02*
Y108200D01*
G01D02*
X14250D01*
G01X15283Y126500D02*
Y129500D01*
X15992D01*
X16218Y129350D01*
X16360Y129150D01*
X16417Y128750D01*
X16360Y128350D01*
X16190Y128100D01*
X15992Y127950D01*
X15283D01*
G01X15992D02*
X16417Y126500D01*
G01X17427Y126950D02*
X17597Y126700D01*
X17795Y126550D01*
X18050Y126500D01*
X18305Y126600D01*
X18503Y126800D01*
X18645Y127150D01*
X18673Y127550D01*
X18617Y127950D01*
X18475Y128200D01*
X18277Y128400D01*
X18078Y128450D01*
X17880Y128400D01*
X17625Y128200D01*
X17710Y129500D01*
X18475D01*
G01X22700Y130250D02*
X6700D01*
G01D02*
Y137750D01*
G01D02*
X22700D01*
G01X6750Y127200D02*
X14250D01*
G01X5950Y154000D02*
Y139000D01*
G01D02*
X40450D01*
G01Y154000D02*
X5950D01*
G01X40613Y7000D02*
Y10000D01*
X41350Y7500D01*
X42087Y10000D01*
Y7000D01*
G01X43550Y9000D02*
Y7000D01*
G01Y9800D02*
X43493Y9850D01*
Y9950D01*
X43550Y10000D01*
X43607Y9950D01*
Y9850D01*
X43550Y9800D01*
G01X45750Y10000D02*
Y7000D01*
G01X45353Y9000D02*
X46147D01*
G01X47553Y7000D02*
Y9000D01*
G01Y8600D02*
X47695Y8800D01*
X47837Y8950D01*
X48035Y9000D01*
X48177Y8950D01*
X48347Y8800D01*
G01X49725Y8350D02*
X50632D01*
X50547Y8700D01*
X50405Y8900D01*
X50207Y9000D01*
X50008Y8950D01*
X49838Y8800D01*
X49725Y8450D01*
X49668Y8150D01*
Y7850D01*
X49725Y7550D01*
X49867Y7250D01*
X50037Y7050D01*
X50235Y7000D01*
X50433Y7100D01*
X50632Y7400D01*
G01X52860Y7000D02*
Y9000D01*
G01Y8650D02*
X52747Y8850D01*
X52577Y8950D01*
X52378Y9000D01*
X52180Y8900D01*
X52010Y8700D01*
X51897Y8400D01*
X51840Y8000D01*
X51897Y7600D01*
X52010Y7300D01*
X52180Y7100D01*
X52378Y7000D01*
X52577Y7050D01*
X52747Y7200D01*
X52860Y7400D01*
G01X56977Y8600D02*
X57090Y8750D01*
X57175Y9000D01*
X57232Y9350D01*
X57175Y9650D01*
X57062Y9850D01*
X56863Y10000D01*
X56098D01*
Y7000D01*
X57033D01*
X57232Y7200D01*
X57345Y7500D01*
X57402Y7850D01*
X57345Y8200D01*
X57175Y8500D01*
X56977Y8600D01*
X56098D01*
G01X58950Y7000D02*
X58780Y7050D01*
X58610Y7250D01*
X58497Y7600D01*
X58440Y8000D01*
X58497Y8400D01*
X58610Y8750D01*
X58780Y8950D01*
X58950Y9000D01*
X59120Y8950D01*
X59290Y8750D01*
X59403Y8400D01*
X59432Y8000D01*
X59403Y7600D01*
X59290Y7250D01*
X59120Y7050D01*
X58950Y7000D01*
G01X60753Y6250D02*
X60952Y6050D01*
X61178Y6000D01*
X61377Y6050D01*
X61547Y6300D01*
X61660Y6650D01*
Y9000D01*
G01Y8600D02*
X61547Y8800D01*
X61377Y8950D01*
X61178Y9000D01*
X60952Y8900D01*
X60810Y8700D01*
X60697Y8350D01*
X60640Y8000D01*
X60668Y7700D01*
X60782Y7350D01*
X60952Y7100D01*
X61178Y7000D01*
X61348Y7050D01*
X61547Y7250D01*
X61660Y7450D01*
G01X63860Y10000D02*
Y7000D01*
G01Y7450D02*
X63747Y7200D01*
X63577Y7050D01*
X63378Y7000D01*
X63152Y7100D01*
X62982Y7350D01*
X62868Y7650D01*
X62840Y8000D01*
X62868Y8350D01*
X62982Y8650D01*
X63152Y8900D01*
X63378Y9000D01*
X63577Y8950D01*
X63718Y8850D01*
X63860Y8650D01*
G01X66060Y7000D02*
Y9000D01*
G01Y8650D02*
X65947Y8850D01*
X65777Y8950D01*
X65578Y9000D01*
X65380Y8900D01*
X65210Y8700D01*
X65097Y8400D01*
X65040Y8000D01*
X65097Y7600D01*
X65210Y7300D01*
X65380Y7100D01*
X65578Y7000D01*
X65777Y7050D01*
X65947Y7200D01*
X66060Y7400D01*
G01X67268Y7000D02*
Y9000D01*
G01Y8500D02*
X67382Y8750D01*
X67552Y8950D01*
X67778Y9000D01*
X67977Y8950D01*
X68147Y8750D01*
X68232Y8400D01*
Y7000D01*
G01X72490D02*
Y10000D01*
X71442Y7850D01*
X72858D01*
G01X73727Y7600D02*
X73897Y7250D01*
X74123Y7050D01*
X74378Y7000D01*
X74605Y7050D01*
X74832Y7300D01*
X74973Y7600D01*
X75002Y7900D01*
X74945Y8250D01*
X74747Y8500D01*
X74548Y8600D01*
X74293D01*
G01X74548D02*
X74718Y8750D01*
X74860Y9000D01*
X74917Y9300D01*
X74860Y9600D01*
X74718Y9850D01*
X74463Y10000D01*
X74208Y9950D01*
X73953Y9750D01*
G01X76012Y9500D02*
X76182Y9800D01*
X76380Y9950D01*
X76607Y10000D01*
X76890Y9900D01*
X77088Y9650D01*
X77145Y9350D01*
X77117Y9050D01*
X77003Y8800D01*
X76437Y8300D01*
X76182Y7950D01*
X76012Y7450D01*
X75955Y7000D01*
X77145D01*
G01X78127D02*
Y10000D01*
X78693D01*
X78920Y9850D01*
X79090Y9650D01*
X79232Y9350D01*
X79345Y9000D01*
X79373Y8500D01*
X79345Y8000D01*
X79232Y7650D01*
X79090Y7350D01*
X78920Y7150D01*
X78693Y7000D01*
X78127D01*
G01X82583D02*
Y10000D01*
X83263D01*
X83490Y9850D01*
X83660Y9500D01*
X83717Y9100D01*
X83660Y8700D01*
X83518Y8400D01*
X83263Y8250D01*
X82583D01*
G01X84727Y7000D02*
Y10000D01*
X85293D01*
X85520Y9850D01*
X85690Y9650D01*
X85832Y9350D01*
X85945Y9000D01*
X85973Y8500D01*
X85945Y8000D01*
X85832Y7650D01*
X85690Y7350D01*
X85520Y7150D01*
X85293Y7000D01*
X84727D01*
G01X88173Y9750D02*
X88003Y9900D01*
X87805Y10000D01*
X87578D01*
X87323Y9850D01*
X87125Y9600D01*
X86983Y9300D01*
X86870Y8800D01*
X86842Y8350D01*
X86898Y7900D01*
X86983Y7600D01*
X87153Y7300D01*
X87352Y7100D01*
X87550Y7000D01*
X87748D01*
X87947Y7100D01*
X88117Y7250D01*
X88258Y7450D01*
G01X90317Y7000D02*
X89183D01*
Y10000D01*
X90317D01*
G01X89863Y8550D02*
X89183D01*
G01X93810Y10000D02*
X94490D01*
G01X94150D02*
Y7000D01*
G01X93810D02*
X94490D01*
G01X98012Y9500D02*
X98182Y9800D01*
X98380Y9950D01*
X98607Y10000D01*
X98890Y9900D01*
X99088Y9650D01*
X99145Y9350D01*
X99117Y9050D01*
X99003Y8800D01*
X98437Y8300D01*
X98182Y7950D01*
X98012Y7450D01*
X97955Y7000D01*
X99145D01*
G01X100750Y10000D02*
X100523Y9900D01*
X100353Y9650D01*
X100240Y9350D01*
X100155Y8950D01*
X100127Y8500D01*
X100155Y8050D01*
X100240Y7650D01*
X100353Y7350D01*
X100523Y7100D01*
X100750Y7000D01*
X100977Y7100D01*
X101147Y7350D01*
X101260Y7650D01*
X101345Y8050D01*
X101373Y8500D01*
X101345Y8950D01*
X101260Y9350D01*
X101147Y9650D01*
X100977Y9900D01*
X100750Y10000D01*
G01X102412Y9500D02*
X102582Y9800D01*
X102780Y9950D01*
X103007Y10000D01*
X103290Y9900D01*
X103488Y9650D01*
X103545Y9350D01*
X103517Y9050D01*
X103403Y8800D01*
X102837Y8300D01*
X102582Y7950D01*
X102412Y7450D01*
X102355Y7000D01*
X103545D01*
G01X104527Y7600D02*
X104697Y7250D01*
X104923Y7050D01*
X105178Y7000D01*
X105405Y7050D01*
X105632Y7300D01*
X105773Y7600D01*
X105802Y7900D01*
X105745Y8250D01*
X105547Y8500D01*
X105348Y8600D01*
X105093D01*
G01X105348D02*
X105518Y8750D01*
X105660Y9000D01*
X105717Y9300D01*
X105660Y9600D01*
X105518Y9850D01*
X105263Y10000D01*
X105008Y9950D01*
X104753Y9750D01*
G01X106982Y8000D02*
X107718D01*
G01X109012Y9500D02*
X109182Y9800D01*
X109380Y9950D01*
X109607Y10000D01*
X109890Y9900D01*
X110088Y9650D01*
X110145Y9350D01*
X110117Y9050D01*
X110003Y8800D01*
X109437Y8300D01*
X109182Y7950D01*
X109012Y7450D01*
X108955Y7000D01*
X110145D01*
G01X111750Y10000D02*
X111523Y9900D01*
X111353Y9650D01*
X111240Y9350D01*
X111155Y8950D01*
X111127Y8500D01*
X111155Y8050D01*
X111240Y7650D01*
X111353Y7350D01*
X111523Y7100D01*
X111750Y7000D01*
X111977Y7100D01*
X112147Y7350D01*
X112260Y7650D01*
X112345Y8050D01*
X112373Y8500D01*
X112345Y8950D01*
X112260Y9350D01*
X112147Y9650D01*
X111977Y9900D01*
X111750Y10000D01*
G01X113412Y9500D02*
X113582Y9800D01*
X113780Y9950D01*
X114007Y10000D01*
X114290Y9900D01*
X114488Y9650D01*
X114545Y9350D01*
X114517Y9050D01*
X114403Y8800D01*
X113837Y8300D01*
X113582Y7950D01*
X113412Y7450D01*
X113355Y7000D01*
X114545D01*
G01X116490D02*
Y10000D01*
X115442Y7850D01*
X116858D01*
G01X29283Y21000D02*
Y24000D01*
X29992D01*
X30218Y23850D01*
X30360Y23650D01*
X30417Y23250D01*
X30360Y22850D01*
X30190Y22600D01*
X29992Y22450D01*
X29283D01*
G01X29992D02*
X30417Y21000D01*
G01X31427Y21600D02*
X31597Y21250D01*
X31823Y21050D01*
X32078Y21000D01*
X32305Y21050D01*
X32532Y21300D01*
X32673Y21600D01*
X32702Y21900D01*
X32645Y22250D01*
X32447Y22500D01*
X32248Y22600D01*
X31993D01*
G01X32248D02*
X32418Y22750D01*
X32560Y23000D01*
X32617Y23300D01*
X32560Y23600D01*
X32418Y23850D01*
X32163Y24000D01*
X31908Y23950D01*
X31653Y23750D01*
G01X34590Y21000D02*
Y24000D01*
X33542Y21850D01*
X34958D01*
G01X42200Y12250D02*
X26200D01*
G01D02*
Y19750D01*
G01D02*
X42200D01*
G01D02*
Y12250D01*
G01X47283Y21000D02*
Y24000D01*
X47992D01*
X48218Y23850D01*
X48360Y23650D01*
X48417Y23250D01*
X48360Y22850D01*
X48190Y22600D01*
X47992Y22450D01*
X47283D01*
G01X47992D02*
X48417Y21000D01*
G01X49427Y21600D02*
X49597Y21250D01*
X49823Y21050D01*
X50078Y21000D01*
X50305Y21050D01*
X50532Y21300D01*
X50673Y21600D01*
X50702Y21900D01*
X50645Y22250D01*
X50447Y22500D01*
X50248Y22600D01*
X49993D01*
G01X50248D02*
X50418Y22750D01*
X50560Y23000D01*
X50617Y23300D01*
X50560Y23600D01*
X50418Y23850D01*
X50163Y24000D01*
X49908Y23950D01*
X49653Y23750D01*
G01X51627Y21600D02*
X51797Y21250D01*
X52023Y21050D01*
X52278Y21000D01*
X52505Y21050D01*
X52732Y21300D01*
X52873Y21600D01*
X52902Y21900D01*
X52845Y22250D01*
X52647Y22500D01*
X52448Y22600D01*
X52193D01*
G01X52448D02*
X52618Y22750D01*
X52760Y23000D01*
X52817Y23300D01*
X52760Y23600D01*
X52618Y23850D01*
X52363Y24000D01*
X52108Y23950D01*
X51853Y23750D01*
G01X61200Y12250D02*
X45200D01*
G01D02*
Y19750D01*
G01D02*
X61200D01*
G01X26750Y43200D02*
Y27200D01*
G01X54000Y27350D02*
X38200D01*
G01D02*
Y37650D01*
G01X31000Y33283D02*
X28000D01*
Y33992D01*
X28150Y34218D01*
X28350Y34360D01*
X28750Y34417D01*
X29150Y34360D01*
X29400Y34190D01*
X29550Y33992D01*
Y33283D01*
G01Y33992D02*
X31000Y34417D01*
G01X28500Y35512D02*
X28200Y35682D01*
X28050Y35880D01*
X28000Y36107D01*
X28100Y36390D01*
X28350Y36588D01*
X28650Y36645D01*
X28950Y36617D01*
X29200Y36503D01*
X29700Y35937D01*
X30050Y35682D01*
X30550Y35512D01*
X31000Y35455D01*
Y36645D01*
G01Y38250D02*
X30950Y38448D01*
X30800Y38675D01*
X30550Y38817D01*
X30200Y38873D01*
X29850Y38817D01*
X29550Y38647D01*
X29400Y38392D01*
Y38108D01*
X29300Y37938D01*
X29050Y37797D01*
X28700Y37740D01*
X28350Y37825D01*
X28100Y38023D01*
X28000Y38250D01*
X28100Y38477D01*
X28350Y38675D01*
X28700Y38760D01*
X29050Y38703D01*
X29300Y38562D01*
X29400Y38392D01*
Y38108D01*
X29550Y37853D01*
X29850Y37683D01*
X30200Y37627D01*
X30550Y37683D01*
X30800Y37825D01*
X30950Y38052D01*
X31000Y38250D01*
G01X32283Y50500D02*
Y53500D01*
X32992D01*
X33218Y53350D01*
X33360Y53150D01*
X33417Y52750D01*
X33360Y52350D01*
X33190Y52100D01*
X32992Y51950D01*
X32283D01*
G01X32992D02*
X33417Y50500D01*
G01X34512Y53000D02*
X34682Y53300D01*
X34880Y53450D01*
X35107Y53500D01*
X35390Y53400D01*
X35588Y53150D01*
X35645Y52850D01*
X35617Y52550D01*
X35503Y52300D01*
X34937Y51800D01*
X34682Y51450D01*
X34512Y50950D01*
X34455Y50500D01*
X35645D01*
G01X37193D02*
X37250Y51150D01*
X37335Y51700D01*
X37448Y52200D01*
X37590Y52750D01*
X37817Y53500D01*
X36683D01*
G01X47200Y41750D02*
X31200D01*
G01D02*
Y49250D01*
G01D02*
X47200D01*
G01D02*
Y41750D01*
G01X28250Y74200D02*
Y58200D01*
G01D02*
X20750D01*
G01D02*
Y74200D01*
G01X38200Y37650D02*
X54000D01*
G01X46850Y59000D02*
X46623Y59050D01*
X46425Y59250D01*
X46255Y59550D01*
X46142Y59900D01*
X46085Y60300D01*
Y60700D01*
X46142Y61100D01*
X46255Y61450D01*
X46425Y61750D01*
X46623Y61950D01*
X46850Y62000D01*
X47077Y61950D01*
X47275Y61750D01*
X47445Y61450D01*
X47558Y61100D01*
X47615Y60700D01*
Y60300D01*
X47558Y59900D01*
X47445Y59550D01*
X47275Y59250D01*
X47077Y59050D01*
X46850Y59000D01*
G01X47077Y59800D02*
X47417Y59000D01*
G01X48427Y59450D02*
X48597Y59200D01*
X48795Y59050D01*
X49050Y59000D01*
X49305Y59100D01*
X49503Y59300D01*
X49645Y59650D01*
X49673Y60050D01*
X49617Y60450D01*
X49475Y60700D01*
X49277Y60900D01*
X49078Y60950D01*
X48880Y60900D01*
X48625Y60700D01*
X48710Y62000D01*
X49475D01*
G01X26283Y88000D02*
Y91000D01*
X26992D01*
X27218Y90850D01*
X27360Y90650D01*
X27417Y90250D01*
X27360Y89850D01*
X27190Y89600D01*
X26992Y89450D01*
X26283D01*
G01X26992D02*
X27417Y88000D01*
G01X29050D02*
X29248Y88050D01*
X29475Y88200D01*
X29617Y88450D01*
X29673Y88800D01*
X29617Y89150D01*
X29447Y89450D01*
X29192Y89600D01*
X28908D01*
X28738Y89700D01*
X28597Y89950D01*
X28540Y90300D01*
X28625Y90650D01*
X28823Y90900D01*
X29050Y91000D01*
X29277Y90900D01*
X29475Y90650D01*
X29560Y90300D01*
X29503Y89950D01*
X29362Y89700D01*
X29192Y89600D01*
X28908D01*
X28653Y89450D01*
X28483Y89150D01*
X28427Y88800D01*
X28483Y88450D01*
X28625Y88200D01*
X28852Y88050D01*
X29050Y88000D01*
G01X32500Y62783D02*
X29500D01*
Y63492D01*
X29650Y63718D01*
X29850Y63860D01*
X30250Y63917D01*
X30650Y63860D01*
X30900Y63690D01*
X31050Y63492D01*
Y62783D01*
G01Y63492D02*
X32500Y63917D01*
G01Y65550D02*
X29500D01*
X30100Y65210D01*
G01X32500D02*
Y65890D01*
G01X30000Y67212D02*
X29700Y67382D01*
X29550Y67580D01*
X29500Y67807D01*
X29600Y68090D01*
X29850Y68288D01*
X30150Y68345D01*
X30450Y68317D01*
X30700Y68203D01*
X31200Y67637D01*
X31550Y67382D01*
X32050Y67212D01*
X32500Y67155D01*
Y68345D01*
G01X20750Y74200D02*
X28250D01*
G01X42783Y73500D02*
Y76500D01*
X43492D01*
X43718Y76350D01*
X43860Y76150D01*
X43917Y75750D01*
X43860Y75350D01*
X43690Y75100D01*
X43492Y74950D01*
X42783D01*
G01X43492D02*
X43917Y73500D01*
G01X45550D02*
Y76500D01*
X45210Y75900D01*
G01Y73500D02*
X45890D01*
G01X47750Y76500D02*
X47523Y76400D01*
X47353Y76150D01*
X47240Y75850D01*
X47155Y75450D01*
X47127Y75000D01*
X47155Y74550D01*
X47240Y74150D01*
X47353Y73850D01*
X47523Y73600D01*
X47750Y73500D01*
X47977Y73600D01*
X48147Y73850D01*
X48260Y74150D01*
X48345Y74550D01*
X48373Y75000D01*
X48345Y75450D01*
X48260Y75850D01*
X48147Y76150D01*
X47977Y76400D01*
X47750Y76500D01*
G01X41250Y85700D02*
Y69700D01*
G01D02*
X33750D01*
G01D02*
Y85700D01*
G01D02*
X41250D01*
G01X22727Y80500D02*
Y83500D01*
X23293D01*
X23520Y83350D01*
X23690Y83150D01*
X23832Y82850D01*
X23945Y82500D01*
X23973Y82000D01*
X23945Y81500D01*
X23832Y81150D01*
X23690Y80850D01*
X23520Y80650D01*
X23293Y80500D01*
X22727D01*
G01X25012Y83000D02*
X25182Y83300D01*
X25380Y83450D01*
X25607Y83500D01*
X25890Y83400D01*
X26088Y83150D01*
X26145Y82850D01*
X26117Y82550D01*
X26003Y82300D01*
X25437Y81800D01*
X25182Y81450D01*
X25012Y80950D01*
X24955Y80500D01*
X26145D01*
G01X38200Y92250D02*
X22200D01*
G01D02*
Y99750D01*
G01D02*
X38200D01*
G01D02*
Y92250D01*
G01X32727Y120000D02*
Y123000D01*
X33293D01*
X33520Y122850D01*
X33690Y122650D01*
X33832Y122350D01*
X33945Y122000D01*
X33973Y121500D01*
X33945Y121000D01*
X33832Y120650D01*
X33690Y120350D01*
X33520Y120150D01*
X33293Y120000D01*
X32727D01*
G01X35550D02*
Y123000D01*
X35210Y122400D01*
G01Y120000D02*
X35890D01*
G01X31150Y127800D02*
Y112000D01*
G01D02*
X26850D01*
G01D02*
X26000Y111150D01*
G01D02*
X25150Y112000D01*
G01D02*
X20850D01*
G01D02*
Y127800D01*
G01X30350Y105000D02*
X30123Y105050D01*
X29925Y105250D01*
X29755Y105550D01*
X29642Y105900D01*
X29585Y106300D01*
Y106700D01*
X29642Y107100D01*
X29755Y107450D01*
X29925Y107750D01*
X30123Y107950D01*
X30350Y108000D01*
X30577Y107950D01*
X30775Y107750D01*
X30945Y107450D01*
X31058Y107100D01*
X31115Y106700D01*
Y106300D01*
X31058Y105900D01*
X30945Y105550D01*
X30775Y105250D01*
X30577Y105050D01*
X30350Y105000D01*
G01X30577Y105800D02*
X30917Y105000D01*
G01X31927Y105600D02*
X32097Y105250D01*
X32323Y105050D01*
X32578Y105000D01*
X32805Y105050D01*
X33032Y105300D01*
X33173Y105600D01*
X33202Y105900D01*
X33145Y106250D01*
X32947Y106500D01*
X32748Y106600D01*
X32493D01*
G01X32748D02*
X32918Y106750D01*
X33060Y107000D01*
X33117Y107300D01*
X33060Y107600D01*
X32918Y107850D01*
X32663Y108000D01*
X32408Y107950D01*
X32153Y107750D01*
G01X22700Y137750D02*
Y130250D01*
G01X41783Y137000D02*
Y140000D01*
X42492D01*
X42718Y139850D01*
X42860Y139650D01*
X42917Y139250D01*
X42860Y138850D01*
X42690Y138600D01*
X42492Y138450D01*
X41783D01*
G01X42492D02*
X42917Y137000D01*
G01X44890D02*
Y140000D01*
X43842Y137850D01*
X45258D01*
G01X56200Y128250D02*
X40200D01*
G01D02*
Y135750D01*
G01D02*
X56200D01*
G01X50283Y151000D02*
Y154000D01*
X50992D01*
X51218Y153850D01*
X51360Y153650D01*
X51417Y153250D01*
X51360Y152850D01*
X51190Y152600D01*
X50992Y152450D01*
X50283D01*
G01X50992D02*
X51417Y151000D01*
G01X53050D02*
Y154000D01*
X52710Y153400D01*
G01Y151000D02*
X53390D01*
G01X43800Y150250D02*
X59800D01*
G01Y142750D02*
X43800D01*
G01D02*
Y150250D01*
G01X27283Y135600D02*
X27425Y135300D01*
X27595Y135100D01*
X27793Y135000D01*
X28020Y135100D01*
X28190Y135300D01*
X28360Y135600D01*
X28417Y136000D01*
Y138000D01*
G01X30050Y135000D02*
Y138000D01*
X29710Y137400D01*
G01Y135000D02*
X30390D01*
G01X40450Y139000D02*
Y154000D01*
G01X20850Y127800D02*
X31150D01*
G01X61200Y19750D02*
Y12250D01*
G01X66283Y21000D02*
Y24000D01*
X66992D01*
X67218Y23850D01*
X67360Y23650D01*
X67417Y23250D01*
X67360Y22850D01*
X67190Y22600D01*
X66992Y22450D01*
X66283D01*
G01X66992D02*
X67417Y21000D01*
G01X68427Y21600D02*
X68597Y21250D01*
X68823Y21050D01*
X69078Y21000D01*
X69305Y21050D01*
X69532Y21300D01*
X69673Y21600D01*
X69702Y21900D01*
X69645Y22250D01*
X69447Y22500D01*
X69248Y22600D01*
X68993D01*
G01X69248D02*
X69418Y22750D01*
X69560Y23000D01*
X69617Y23300D01*
X69560Y23600D01*
X69418Y23850D01*
X69163Y24000D01*
X68908Y23950D01*
X68653Y23750D01*
G01X70712Y23500D02*
X70882Y23800D01*
X71080Y23950D01*
X71307Y24000D01*
X71590Y23900D01*
X71788Y23650D01*
X71845Y23350D01*
X71817Y23050D01*
X71703Y22800D01*
X71137Y22300D01*
X70882Y21950D01*
X70712Y21450D01*
X70655Y21000D01*
X71845D01*
G01X80200Y12250D02*
X64200D01*
G01D02*
Y19750D01*
G01D02*
X80200D01*
G01D02*
Y12250D01*
G01X78700Y26750D02*
X62700D01*
G01D02*
Y34250D01*
G01X78700D02*
Y26750D01*
G01X57727Y30000D02*
Y33000D01*
X58293D01*
X58520Y32850D01*
X58690Y32650D01*
X58832Y32350D01*
X58945Y32000D01*
X58973Y31500D01*
X58945Y31000D01*
X58832Y30650D01*
X58690Y30350D01*
X58520Y30150D01*
X58293Y30000D01*
X57727D01*
G01X59927Y30600D02*
X60097Y30250D01*
X60323Y30050D01*
X60578Y30000D01*
X60805Y30050D01*
X61032Y30300D01*
X61173Y30600D01*
X61202Y30900D01*
X61145Y31250D01*
X60947Y31500D01*
X60748Y31600D01*
X60493D01*
G01X60748D02*
X60918Y31750D01*
X61060Y32000D01*
X61117Y32300D01*
X61060Y32600D01*
X60918Y32850D01*
X60663Y33000D01*
X60408Y32950D01*
X60153Y32750D01*
G01X54000Y31650D02*
Y27350D01*
G01X93700Y38750D02*
X77700D01*
G01D02*
Y46250D01*
G01D02*
X93700D01*
G01X54283Y50500D02*
Y53500D01*
X54992D01*
X55218Y53350D01*
X55360Y53150D01*
X55417Y52750D01*
X55360Y52350D01*
X55190Y52100D01*
X54992Y51950D01*
X54283D01*
G01X54992D02*
X55417Y50500D01*
G01X56512Y53000D02*
X56682Y53300D01*
X56880Y53450D01*
X57107Y53500D01*
X57390Y53400D01*
X57588Y53150D01*
X57645Y52850D01*
X57617Y52550D01*
X57503Y52300D01*
X56937Y51800D01*
X56682Y51450D01*
X56512Y50950D01*
X56455Y50500D01*
X57645D01*
G01X58712Y51750D02*
X58910Y52100D01*
X59080Y52300D01*
X59307Y52400D01*
X59505Y52300D01*
X59647Y52100D01*
X59760Y51800D01*
X59788Y51450D01*
X59760Y51150D01*
X59647Y50850D01*
X59477Y50600D01*
X59278Y50500D01*
X59052Y50600D01*
X58853Y50900D01*
X58740Y51350D01*
X58712Y51850D01*
X58768Y52500D01*
X58853Y52850D01*
X58995Y53200D01*
X59193Y53450D01*
X59392Y53500D01*
X59590Y53400D01*
X59732Y53150D01*
G01X68700Y41750D02*
X52700D01*
G01D02*
Y49250D01*
G01D02*
X68700D01*
G01D02*
Y41750D01*
G01X69283Y35500D02*
Y38500D01*
X69992D01*
X70218Y38350D01*
X70360Y38150D01*
X70417Y37750D01*
X70360Y37350D01*
X70190Y37100D01*
X69992Y36950D01*
X69283D01*
G01X69992D02*
X70417Y35500D01*
G01X71512Y38000D02*
X71682Y38300D01*
X71880Y38450D01*
X72107Y38500D01*
X72390Y38400D01*
X72588Y38150D01*
X72645Y37850D01*
X72617Y37550D01*
X72503Y37300D01*
X71937Y36800D01*
X71682Y36450D01*
X71512Y35950D01*
X71455Y35500D01*
X72645D01*
G01X73627Y35950D02*
X73797Y35700D01*
X73995Y35550D01*
X74250Y35500D01*
X74505Y35600D01*
X74703Y35800D01*
X74845Y36150D01*
X74873Y36550D01*
X74817Y36950D01*
X74675Y37200D01*
X74477Y37400D01*
X74278Y37450D01*
X74080Y37400D01*
X73825Y37200D01*
X73910Y38500D01*
X74675D01*
G01X62700Y34250D02*
X78700D01*
G01X54000Y37650D02*
Y33350D01*
G01D02*
X54850Y32500D01*
G01D02*
X54000Y31650D01*
G01X72850Y80000D02*
X72623Y80050D01*
X72425Y80250D01*
X72255Y80550D01*
X72142Y80900D01*
X72085Y81300D01*
Y81700D01*
X72142Y82100D01*
X72255Y82450D01*
X72425Y82750D01*
X72623Y82950D01*
X72850Y83000D01*
X73077Y82950D01*
X73275Y82750D01*
X73445Y82450D01*
X73558Y82100D01*
X73615Y81700D01*
Y81300D01*
X73558Y80900D01*
X73445Y80550D01*
X73275Y80250D01*
X73077Y80050D01*
X72850Y80000D01*
G01X73077Y80800D02*
X73417Y80000D01*
G01X74512Y81250D02*
X74710Y81600D01*
X74880Y81800D01*
X75107Y81900D01*
X75305Y81800D01*
X75447Y81600D01*
X75560Y81300D01*
X75588Y80950D01*
X75560Y80650D01*
X75447Y80350D01*
X75277Y80100D01*
X75078Y80000D01*
X74852Y80100D01*
X74653Y80400D01*
X74540Y80850D01*
X74512Y81350D01*
X74568Y82000D01*
X74653Y82350D01*
X74795Y82700D01*
X74993Y82950D01*
X75192Y83000D01*
X75390Y82900D01*
X75532Y82650D01*
G01X56200Y135750D02*
Y128250D01*
G01X61283Y137000D02*
Y140000D01*
X61992D01*
X62218Y139850D01*
X62360Y139650D01*
X62417Y139250D01*
X62360Y138850D01*
X62190Y138600D01*
X61992Y138450D01*
X61283D01*
G01X61992D02*
X62417Y137000D01*
G01X63427Y137600D02*
X63597Y137250D01*
X63823Y137050D01*
X64078Y137000D01*
X64305Y137050D01*
X64532Y137300D01*
X64673Y137600D01*
X64702Y137900D01*
X64645Y138250D01*
X64447Y138500D01*
X64248Y138600D01*
X63993D01*
G01X64248D02*
X64418Y138750D01*
X64560Y139000D01*
X64617Y139300D01*
X64560Y139600D01*
X64418Y139850D01*
X64163Y140000D01*
X63908Y139950D01*
X63653Y139750D01*
G01X75700Y128250D02*
X59700D01*
G01D02*
Y135750D01*
G01D02*
X75700D01*
G01D02*
Y128250D01*
G01X70783Y151000D02*
Y154000D01*
X71492D01*
X71718Y153850D01*
X71860Y153650D01*
X71917Y153250D01*
X71860Y152850D01*
X71690Y152600D01*
X71492Y152450D01*
X70783D01*
G01X71492D02*
X71917Y151000D01*
G01X73012Y153500D02*
X73182Y153800D01*
X73380Y153950D01*
X73607Y154000D01*
X73890Y153900D01*
X74088Y153650D01*
X74145Y153350D01*
X74117Y153050D01*
X74003Y152800D01*
X73437Y152300D01*
X73182Y151950D01*
X73012Y151450D01*
X72955Y151000D01*
X74145D01*
G01X64300Y150250D02*
X80300D01*
G01Y142750D02*
X64300D01*
G01D02*
Y150250D01*
G01X59800D02*
Y142750D01*
G01X87283Y21000D02*
Y24000D01*
X87992D01*
X88218Y23850D01*
X88360Y23650D01*
X88417Y23250D01*
X88360Y22850D01*
X88190Y22600D01*
X87992Y22450D01*
X87283D01*
G01X87992D02*
X88417Y21000D01*
G01X89427Y21600D02*
X89597Y21250D01*
X89823Y21050D01*
X90078Y21000D01*
X90305Y21050D01*
X90532Y21300D01*
X90673Y21600D01*
X90702Y21900D01*
X90645Y22250D01*
X90447Y22500D01*
X90248Y22600D01*
X89993D01*
G01X90248D02*
X90418Y22750D01*
X90560Y23000D01*
X90617Y23300D01*
X90560Y23600D01*
X90418Y23850D01*
X90163Y24000D01*
X89908Y23950D01*
X89653Y23750D01*
G01X92250Y21000D02*
Y24000D01*
X91910Y23400D01*
G01Y21000D02*
X92590D01*
G01X99200Y12250D02*
X83200D01*
G01D02*
Y19750D01*
G01D02*
X99200D01*
G01D02*
Y12250D01*
G01X106283Y21000D02*
Y24000D01*
X106992D01*
X107218Y23850D01*
X107360Y23650D01*
X107417Y23250D01*
X107360Y22850D01*
X107190Y22600D01*
X106992Y22450D01*
X106283D01*
G01X106992D02*
X107417Y21000D01*
G01X108427Y21600D02*
X108597Y21250D01*
X108823Y21050D01*
X109078Y21000D01*
X109305Y21050D01*
X109532Y21300D01*
X109673Y21600D01*
X109702Y21900D01*
X109645Y22250D01*
X109447Y22500D01*
X109248Y22600D01*
X108993D01*
G01X109248D02*
X109418Y22750D01*
X109560Y23000D01*
X109617Y23300D01*
X109560Y23600D01*
X109418Y23850D01*
X109163Y24000D01*
X108908Y23950D01*
X108653Y23750D01*
G01X111250Y24000D02*
X111023Y23900D01*
X110853Y23650D01*
X110740Y23350D01*
X110655Y22950D01*
X110627Y22500D01*
X110655Y22050D01*
X110740Y21650D01*
X110853Y21350D01*
X111023Y21100D01*
X111250Y21000D01*
X111477Y21100D01*
X111647Y21350D01*
X111760Y21650D01*
X111845Y22050D01*
X111873Y22500D01*
X111845Y22950D01*
X111760Y23350D01*
X111647Y23650D01*
X111477Y23900D01*
X111250Y24000D01*
G01X118200Y12250D02*
X102200D01*
G01D02*
Y19750D01*
G01D02*
X118200D01*
G01X86783Y32500D02*
Y35500D01*
X87492D01*
X87718Y35350D01*
X87860Y35150D01*
X87917Y34750D01*
X87860Y34350D01*
X87690Y34100D01*
X87492Y33950D01*
X86783D01*
G01X87492D02*
X87917Y32500D01*
G01X89068Y32850D02*
X89267Y32600D01*
X89493Y32500D01*
X89720Y32600D01*
X89918Y32900D01*
X90060Y33350D01*
X90117Y33800D01*
Y34350D01*
X90060Y34800D01*
X89918Y35200D01*
X89748Y35400D01*
X89550Y35500D01*
X89323Y35400D01*
X89153Y35200D01*
X89040Y34900D01*
X88983Y34500D01*
X89040Y34150D01*
X89182Y33800D01*
X89352Y33600D01*
X89550Y33550D01*
X89777Y33650D01*
X89947Y33900D01*
X90117Y34350D01*
G01X93700Y46250D02*
Y38750D01*
G01X108500Y43783D02*
X105500D01*
Y44492D01*
X105650Y44718D01*
X105850Y44860D01*
X106250Y44917D01*
X106650Y44860D01*
X106900Y44690D01*
X107050Y44492D01*
Y43783D01*
G01Y44492D02*
X108500Y44917D01*
G01X106000Y46012D02*
X105700Y46182D01*
X105550Y46380D01*
X105500Y46607D01*
X105600Y46890D01*
X105850Y47088D01*
X106150Y47145D01*
X106450Y47117D01*
X106700Y47003D01*
X107200Y46437D01*
X107550Y46182D01*
X108050Y46012D01*
X108500Y45955D01*
Y47145D01*
G01X105500Y48750D02*
X105600Y48523D01*
X105850Y48353D01*
X106150Y48240D01*
X106550Y48155D01*
X107000Y48127D01*
X107450Y48155D01*
X107850Y48240D01*
X108150Y48353D01*
X108400Y48523D01*
X108500Y48750D01*
X108400Y48977D01*
X108150Y49147D01*
X107850Y49260D01*
X107450Y49345D01*
X107000Y49373D01*
X106550Y49345D01*
X106150Y49260D01*
X105850Y49147D01*
X105600Y48977D01*
X105500Y48750D01*
G01X104250Y52200D02*
Y36200D01*
G01D02*
X96750D01*
G01D02*
Y52200D01*
G01D02*
X104250D01*
G01X108500Y60283D02*
X105500D01*
Y60992D01*
X105650Y61218D01*
X105850Y61360D01*
X106250Y61417D01*
X106650Y61360D01*
X106900Y61190D01*
X107050Y60992D01*
Y60283D01*
G01Y60992D02*
X108500Y61417D01*
G01Y63050D02*
X105500D01*
X106100Y62710D01*
G01X108500D02*
Y63390D01*
G01X108150Y64768D02*
X108400Y64967D01*
X108500Y65193D01*
X108400Y65420D01*
X108100Y65618D01*
X107650Y65760D01*
X107200Y65817D01*
X106650D01*
X106200Y65760D01*
X105800Y65618D01*
X105600Y65448D01*
X105500Y65250D01*
X105600Y65023D01*
X105800Y64853D01*
X106100Y64740D01*
X106500Y64683D01*
X106850Y64740D01*
X107200Y64882D01*
X107400Y65052D01*
X107450Y65250D01*
X107350Y65477D01*
X107100Y65647D01*
X106650Y65817D01*
G01X104250Y72700D02*
Y56700D01*
G01D02*
X96750D01*
G01D02*
Y72700D01*
G01D02*
X104250D01*
G01X107800Y150250D02*
X123800D01*
G01Y142750D02*
X107800D01*
G01D02*
Y150250D01*
G01X92283Y151000D02*
Y154000D01*
X92992D01*
X93218Y153850D01*
X93360Y153650D01*
X93417Y153250D01*
X93360Y152850D01*
X93190Y152600D01*
X92992Y152450D01*
X92283D01*
G01X92992D02*
X93417Y151000D01*
G01X94512Y152250D02*
X94710Y152600D01*
X94880Y152800D01*
X95107Y152900D01*
X95305Y152800D01*
X95447Y152600D01*
X95560Y152300D01*
X95588Y151950D01*
X95560Y151650D01*
X95447Y151350D01*
X95277Y151100D01*
X95078Y151000D01*
X94852Y151100D01*
X94653Y151400D01*
X94540Y151850D01*
X94512Y152350D01*
X94568Y153000D01*
X94653Y153350D01*
X94795Y153700D01*
X94993Y153950D01*
X95192Y154000D01*
X95390Y153900D01*
X95532Y153650D01*
G01X101700Y142750D02*
X85700D01*
G01D02*
Y150250D01*
G01D02*
X101700D01*
G01D02*
Y142750D01*
G01X80300Y150250D02*
Y142750D01*
G01X94850Y121500D02*
X94623Y121550D01*
X94425Y121750D01*
X94255Y122050D01*
X94142Y122400D01*
X94085Y122800D01*
Y123200D01*
X94142Y123600D01*
X94255Y123950D01*
X94425Y124250D01*
X94623Y124450D01*
X94850Y124500D01*
X95077Y124450D01*
X95275Y124250D01*
X95445Y123950D01*
X95558Y123600D01*
X95615Y123200D01*
Y122800D01*
X95558Y122400D01*
X95445Y122050D01*
X95275Y121750D01*
X95077Y121550D01*
X94850Y121500D01*
G01X95077Y122300D02*
X95417Y121500D01*
G01X96993D02*
X97050Y122150D01*
X97135Y122700D01*
X97248Y123200D01*
X97390Y123750D01*
X97617Y124500D01*
X96483D01*
G01X103850Y139000D02*
X103623Y139050D01*
X103425Y139250D01*
X103255Y139550D01*
X103142Y139900D01*
X103085Y140300D01*
Y140700D01*
X103142Y141100D01*
X103255Y141450D01*
X103425Y141750D01*
X103623Y141950D01*
X103850Y142000D01*
X104077Y141950D01*
X104275Y141750D01*
X104445Y141450D01*
X104558Y141100D01*
X104615Y140700D01*
Y140300D01*
X104558Y139900D01*
X104445Y139550D01*
X104275Y139250D01*
X104077Y139050D01*
X103850Y139000D01*
G01X104077Y139800D02*
X104417Y139000D01*
G01X105512Y141500D02*
X105682Y141800D01*
X105880Y141950D01*
X106107Y142000D01*
X106390Y141900D01*
X106588Y141650D01*
X106645Y141350D01*
X106617Y141050D01*
X106503Y140800D01*
X105937Y140300D01*
X105682Y139950D01*
X105512Y139450D01*
X105455Y139000D01*
X106645D01*
G01X94350Y130500D02*
X94123Y130550D01*
X93925Y130750D01*
X93755Y131050D01*
X93642Y131400D01*
X93585Y131800D01*
Y132200D01*
X93642Y132600D01*
X93755Y132950D01*
X93925Y133250D01*
X94123Y133450D01*
X94350Y133500D01*
X94577Y133450D01*
X94775Y133250D01*
X94945Y132950D01*
X95058Y132600D01*
X95115Y132200D01*
Y131800D01*
X95058Y131400D01*
X94945Y131050D01*
X94775Y130750D01*
X94577Y130550D01*
X94350Y130500D01*
G01X94577Y131300D02*
X94917Y130500D01*
G01X96550D02*
Y133500D01*
X96210Y132900D01*
G01Y130500D02*
X96890D01*
G01X118200Y19750D02*
Y12250D01*
G01X125283Y21000D02*
Y24000D01*
X125992D01*
X126218Y23850D01*
X126360Y23650D01*
X126417Y23250D01*
X126360Y22850D01*
X126190Y22600D01*
X125992Y22450D01*
X125283D01*
G01X125992D02*
X126417Y21000D01*
G01X127512Y23500D02*
X127682Y23800D01*
X127880Y23950D01*
X128107Y24000D01*
X128390Y23900D01*
X128588Y23650D01*
X128645Y23350D01*
X128617Y23050D01*
X128503Y22800D01*
X127937Y22300D01*
X127682Y21950D01*
X127512Y21450D01*
X127455Y21000D01*
X128645D01*
G01X129768Y21350D02*
X129967Y21100D01*
X130193Y21000D01*
X130420Y21100D01*
X130618Y21400D01*
X130760Y21850D01*
X130817Y22300D01*
Y22850D01*
X130760Y23300D01*
X130618Y23700D01*
X130448Y23900D01*
X130250Y24000D01*
X130023Y23900D01*
X129853Y23700D01*
X129740Y23400D01*
X129683Y23000D01*
X129740Y22650D01*
X129882Y22300D01*
X130052Y22100D01*
X130250Y22050D01*
X130477Y22150D01*
X130647Y22400D01*
X130817Y22850D01*
G01X137200Y12250D02*
X121200D01*
G01D02*
Y19750D01*
G01D02*
X137200D01*
G01D02*
Y12250D01*
G01X131783Y25600D02*
X131925Y25300D01*
X132095Y25100D01*
X132293Y25000D01*
X132520Y25100D01*
X132690Y25300D01*
X132860Y25600D01*
X132917Y26000D01*
Y28000D01*
G01X134012Y27500D02*
X134182Y27800D01*
X134380Y27950D01*
X134607Y28000D01*
X134890Y27900D01*
X135088Y27650D01*
X135145Y27350D01*
X135117Y27050D01*
X135003Y26800D01*
X134437Y26300D01*
X134182Y25950D01*
X134012Y25450D01*
X133955Y25000D01*
X135145D01*
G01X139000Y5950D02*
X154000D01*
G01X139000Y40450D02*
Y5950D01*
G01X132783Y57500D02*
Y60500D01*
X133492D01*
X133718Y60350D01*
X133860Y60150D01*
X133917Y59750D01*
X133860Y59350D01*
X133690Y59100D01*
X133492Y58950D01*
X132783D01*
G01X133492D02*
X133917Y57500D01*
G01X135012Y60000D02*
X135182Y60300D01*
X135380Y60450D01*
X135607Y60500D01*
X135890Y60400D01*
X136088Y60150D01*
X136145Y59850D01*
X136117Y59550D01*
X136003Y59300D01*
X135437Y58800D01*
X135182Y58450D01*
X135012Y57950D01*
X134955Y57500D01*
X136145D01*
G01X137750D02*
Y60500D01*
X137410Y59900D01*
G01Y57500D02*
X138090D01*
G01X154000Y40450D02*
X139000D01*
G01X117283Y77000D02*
Y80000D01*
X117992D01*
X118218Y79850D01*
X118360Y79650D01*
X118417Y79250D01*
X118360Y78850D01*
X118190Y78600D01*
X117992Y78450D01*
X117283D01*
G01X117992D02*
X118417Y77000D01*
G01X120050D02*
Y80000D01*
X119710Y79400D01*
G01Y77000D02*
X120390D01*
G01X122250D02*
X122448Y77050D01*
X122675Y77200D01*
X122817Y77450D01*
X122873Y77800D01*
X122817Y78150D01*
X122647Y78450D01*
X122392Y78600D01*
X122108D01*
X121938Y78700D01*
X121797Y78950D01*
X121740Y79300D01*
X121825Y79650D01*
X122023Y79900D01*
X122250Y80000D01*
X122477Y79900D01*
X122675Y79650D01*
X122760Y79300D01*
X122703Y78950D01*
X122562Y78700D01*
X122392Y78600D01*
X122108D01*
X121853Y78450D01*
X121683Y78150D01*
X121627Y77800D01*
X121683Y77450D01*
X121825Y77200D01*
X122052Y77050D01*
X122250Y77000D01*
G01X131700Y68250D02*
X115700D01*
G01D02*
Y75750D01*
G01D02*
X131700D01*
G01D02*
Y68250D01*
G01X139850Y120000D02*
X139623Y120050D01*
X139425Y120250D01*
X139255Y120550D01*
X139142Y120900D01*
X139085Y121300D01*
Y121700D01*
X139142Y122100D01*
X139255Y122450D01*
X139425Y122750D01*
X139623Y122950D01*
X139850Y123000D01*
X140077Y122950D01*
X140275Y122750D01*
X140445Y122450D01*
X140558Y122100D01*
X140615Y121700D01*
Y121300D01*
X140558Y120900D01*
X140445Y120550D01*
X140275Y120250D01*
X140077Y120050D01*
X139850Y120000D01*
G01X140077Y120800D02*
X140417Y120000D01*
G01X142050D02*
X142248Y120050D01*
X142475Y120200D01*
X142617Y120450D01*
X142673Y120800D01*
X142617Y121150D01*
X142447Y121450D01*
X142192Y121600D01*
X141908D01*
X141738Y121700D01*
X141597Y121950D01*
X141540Y122300D01*
X141625Y122650D01*
X141823Y122900D01*
X142050Y123000D01*
X142277Y122900D01*
X142475Y122650D01*
X142560Y122300D01*
X142503Y121950D01*
X142362Y121700D01*
X142192Y121600D01*
X141908D01*
X141653Y121450D01*
X141483Y121150D01*
X141427Y120800D01*
X141483Y120450D01*
X141625Y120200D01*
X141852Y120050D01*
X142050Y120000D01*
G01X120850Y103500D02*
X120623Y103550D01*
X120425Y103750D01*
X120255Y104050D01*
X120142Y104400D01*
X120085Y104800D01*
Y105200D01*
X120142Y105600D01*
X120255Y105950D01*
X120425Y106250D01*
X120623Y106450D01*
X120850Y106500D01*
X121077Y106450D01*
X121275Y106250D01*
X121445Y105950D01*
X121558Y105600D01*
X121615Y105200D01*
Y104800D01*
X121558Y104400D01*
X121445Y104050D01*
X121275Y103750D01*
X121077Y103550D01*
X120850Y103500D01*
G01X121077Y104300D02*
X121417Y103500D01*
G01X123390D02*
Y106500D01*
X122342Y104350D01*
X123758D01*
G01X130783Y144000D02*
Y147000D01*
X131492D01*
X131718Y146850D01*
X131860Y146650D01*
X131917Y146250D01*
X131860Y145850D01*
X131690Y145600D01*
X131492Y145450D01*
X130783D01*
G01X131492D02*
X131917Y144000D01*
G01X133550D02*
Y147000D01*
X133210Y146400D01*
G01Y144000D02*
X133890D01*
G01X135127Y144450D02*
X135297Y144200D01*
X135495Y144050D01*
X135750Y144000D01*
X136005Y144100D01*
X136203Y144300D01*
X136345Y144650D01*
X136373Y145050D01*
X136317Y145450D01*
X136175Y145700D01*
X135977Y145900D01*
X135778Y145950D01*
X135580Y145900D01*
X135325Y145700D01*
X135410Y147000D01*
X136175D01*
G01X153700Y145750D02*
X137700D01*
G01D02*
Y153250D01*
G01X114283Y151000D02*
Y154000D01*
X114992D01*
X115218Y153850D01*
X115360Y153650D01*
X115417Y153250D01*
X115360Y152850D01*
X115190Y152600D01*
X114992Y152450D01*
X114283D01*
G01X114992D02*
X115417Y151000D01*
G01X116993D02*
X117050Y151650D01*
X117135Y152200D01*
X117248Y152700D01*
X117390Y153250D01*
X117617Y154000D01*
X116483D01*
G01X123800Y150250D02*
Y142750D01*
G01X137700Y153250D02*
X153700D01*
G01X154000Y5950D02*
Y40450D01*
G01X144500Y47783D02*
X141500D01*
Y48492D01*
X141650Y48718D01*
X141850Y48860D01*
X142250Y48917D01*
X142650Y48860D01*
X142900Y48690D01*
X143050Y48492D01*
Y47783D01*
G01Y48492D02*
X144500Y48917D01*
G01X142000Y50012D02*
X141700Y50182D01*
X141550Y50380D01*
X141500Y50607D01*
X141600Y50890D01*
X141850Y51088D01*
X142150Y51145D01*
X142450Y51117D01*
X142700Y51003D01*
X143200Y50437D01*
X143550Y50182D01*
X144050Y50012D01*
X144500Y49955D01*
Y51145D01*
G01X142000Y52212D02*
X141700Y52382D01*
X141550Y52580D01*
X141500Y52807D01*
X141600Y53090D01*
X141850Y53288D01*
X142150Y53345D01*
X142450Y53317D01*
X142700Y53203D01*
X143200Y52637D01*
X143550Y52382D01*
X144050Y52212D01*
X144500Y52155D01*
Y53345D01*
G01X145750Y42800D02*
Y58800D01*
G01D02*
X153250D01*
G01D02*
Y42800D01*
G01D02*
X145750D01*
G01X144500Y65283D02*
X141500D01*
Y65992D01*
X141650Y66218D01*
X141850Y66360D01*
X142250Y66417D01*
X142650Y66360D01*
X142900Y66190D01*
X143050Y65992D01*
Y65283D01*
G01Y65992D02*
X144500Y66417D01*
G01X142000Y67512D02*
X141700Y67682D01*
X141550Y67880D01*
X141500Y68107D01*
X141600Y68390D01*
X141850Y68588D01*
X142150Y68645D01*
X142450Y68617D01*
X142700Y68503D01*
X143200Y67937D01*
X143550Y67682D01*
X144050Y67512D01*
X144500Y67455D01*
Y68645D01*
G01X143900Y69627D02*
X144250Y69797D01*
X144450Y70023D01*
X144500Y70278D01*
X144450Y70505D01*
X144200Y70732D01*
X143900Y70873D01*
X143600Y70902D01*
X143250Y70845D01*
X143000Y70647D01*
X142900Y70448D01*
Y70193D01*
G01Y70448D02*
X142750Y70618D01*
X142500Y70760D01*
X142200Y70817D01*
X141900Y70760D01*
X141650Y70618D01*
X141500Y70363D01*
X141550Y70108D01*
X141750Y69853D01*
G01X145750Y62800D02*
Y78800D01*
G01D02*
X153250D01*
G01D02*
Y62800D01*
G01D02*
X145750D01*
G01X144500Y87783D02*
X141500D01*
Y88492D01*
X141650Y88718D01*
X141850Y88860D01*
X142250Y88917D01*
X142650Y88860D01*
X142900Y88690D01*
X143050Y88492D01*
Y87783D01*
G01Y88492D02*
X144500Y88917D01*
G01X142000Y90012D02*
X141700Y90182D01*
X141550Y90380D01*
X141500Y90607D01*
X141600Y90890D01*
X141850Y91088D01*
X142150Y91145D01*
X142450Y91117D01*
X142700Y91003D01*
X143200Y90437D01*
X143550Y90182D01*
X144050Y90012D01*
X144500Y89955D01*
Y91145D01*
G01Y93090D02*
X141500D01*
X143650Y92042D01*
Y93458D01*
G01X145750Y82800D02*
Y98800D01*
G01X153250D02*
Y82800D01*
G01D02*
X145750D01*
G01Y98800D02*
X153250D01*
G01X144500Y110783D02*
X141500D01*
Y111492D01*
X141650Y111718D01*
X141850Y111860D01*
X142250Y111917D01*
X142650Y111860D01*
X142900Y111690D01*
X143050Y111492D01*
Y110783D01*
G01Y111492D02*
X144500Y111917D01*
G01Y113550D02*
X141500D01*
X142100Y113210D01*
G01X144500D02*
Y113890D01*
G01Y115693D02*
X143850Y115750D01*
X143300Y115835D01*
X142800Y115948D01*
X142250Y116090D01*
X141500Y116317D01*
Y115183D01*
G01X145750Y102300D02*
Y118300D01*
G01D02*
X153250D01*
G01D02*
Y102300D01*
G01D02*
X145750D01*
G01X144500Y126783D02*
X141500D01*
Y127492D01*
X141650Y127718D01*
X141850Y127860D01*
X142250Y127917D01*
X142650Y127860D01*
X142900Y127690D01*
X143050Y127492D01*
Y126783D01*
G01Y127492D02*
X144500Y127917D01*
G01Y129550D02*
X141500D01*
X142100Y129210D01*
G01X144500D02*
Y129890D01*
G01X143250Y131212D02*
X142900Y131410D01*
X142700Y131580D01*
X142600Y131807D01*
X142700Y132005D01*
X142900Y132147D01*
X143200Y132260D01*
X143550Y132288D01*
X143850Y132260D01*
X144150Y132147D01*
X144400Y131977D01*
X144500Y131778D01*
X144400Y131552D01*
X144100Y131353D01*
X143650Y131240D01*
X143150Y131212D01*
X142500Y131268D01*
X142150Y131353D01*
X141800Y131495D01*
X141550Y131693D01*
X141500Y131892D01*
X141600Y132090D01*
X141850Y132232D01*
G01X145750Y121800D02*
Y137800D01*
G01D02*
X153250D01*
G01D02*
Y121800D01*
G01D02*
X145750D01*
G01X153700Y153250D02*
Y145750D01*
G54D12*
G01X77252Y120547D02*
X51661D01*
Y94563D01*
X77252D01*
G01X101661Y97713D02*
G03I-393J0D01*
G01X125000Y51122D02*
X116142D01*
G01X120472Y55650D02*
Y46594D01*
G01X126378Y51122D02*
G03X120472Y57028I-5906J0D01*
G03X114567Y50925I1J-5909D01*
G03X120472Y45217I5899J194D01*
G03X126378Y51122I1J5905D01*
G01X121457Y41280D02*
X119488D01*
G01X114961Y60965D02*
X110630D01*
Y41280D01*
X111811D01*
G01X125984Y60965D02*
X130315D01*
Y41280D01*
X129134D01*
M02*
